<svg viewBox="0 0 330 200" xmlns="http://www.w3.org/2000/svg"><g><g><g><g><g><line x1="41.171875" y1="177" x2="36.171875" y2="177" style="visibility: inherit;" fill="rgb(0, 0, 0)" stroke="rgb(204, 204, 204)" stroke-width="1px"></line><line x1="41.171875" y1="157.33333333333331" x2="36.171875" y2="157.33333333333331" style="visibility: inherit;" fill="rgb(0, 0, 0)" stroke="rgb(204, 204, 204)" stroke-width="1px"></line><line x1="41.171875" y1="137.66666666666666" x2="36.171875" y2="137.66666666666666" style="visibility: inherit;" fill="rgb(0, 0, 0)" stroke="rgb(204, 204, 204)" stroke-width="1px"></line><line x1="41.171875" y1="118.00000000000001" x2="36.171875" y2="118.00000000000001" style="visibility: inherit;" fill="rgb(0, 0, 0)" stroke="rgb(204, 204, 204)" stroke-width="1px"></line><line x1="41.171875" y1="98.33333333333334" x2="36.171875" y2="98.33333333333334" style="visibility: inherit;" fill="rgb(0, 0, 0)" stroke="rgb(204, 204, 204)" stroke-width="1px"></line><line x1="41.171875" y1="78.66666666666666" x2="36.171875" y2="78.66666666666666" style="visibility: inherit;" fill="rgb(0, 0, 0)" stroke="rgb(204, 204, 204)" stroke-width="1px"></line><line x1="41.171875" y1="59.00000000000001" x2="36.171875" y2="59.00000000000001" style="visibility: inherit;" fill="rgb(0, 0, 0)" stroke="rgb(204, 204, 204)" stroke-width="1px"></line><line x1="41.171875" y1="39.33333333333335" x2="36.171875" y2="39.33333333333335" style="visibility: inherit;" fill="rgb(0, 0, 0)" stroke="rgb(204, 204, 204)" stroke-width="1px"></line><line x1="41.171875" y1="19.666666666666657" x2="36.171875" y2="19.666666666666657" style="visibility: inherit;" fill="rgb(0, 0, 0)" stroke="rgb(204, 204, 204)" stroke-width="1px"></line><line x1="41.171875" y1="0" x2="36.171875" y2="0" style="visibility: inherit;" fill="rgb(0, 0, 0)" stroke="rgb(204, 204, 204)" stroke-width="1px"></line></g><g transform="translate(31.171875, 0)"><text x="0" y="177" dx="0em" dy="0.3em" style="text-anchor: end; visibility: hidden; font-family: Roboto, sans-serif; font-size: 12px; font-weight: 200;" fill="rgb(255, 255, 255)" stroke="none" stroke-width="1px">0</text><text x="0" y="157.33333333333331" dx="0em" dy="0.3em" style="text-anchor: end; visibility: inherit; font-family: Roboto, sans-serif; font-size: 12px; font-weight: 200;" fill="rgb(255, 255, 255)" stroke="none" stroke-width="1px">0.1</text><text x="0" y="137.66666666666666" dx="0em" dy="0.3em" style="text-anchor: end; visibility: hidden; font-family: Roboto, sans-serif; font-size: 12px; font-weight: 200;" fill="rgb(255, 255, 255)" stroke="none" stroke-width="1px">0.2</text><text x="0" y="118.00000000000001" dx="0em" dy="0.3em" style="text-anchor: end; visibility: inherit; font-family: Roboto, sans-serif; font-size: 12px; font-weight: 200;" fill="rgb(255, 255, 255)" stroke="none" stroke-width="1px">0.3</text><text x="0" y="98.33333333333334" dx="0em" dy="0.3em" style="text-anchor: end; visibility: hidden; font-family: Roboto, sans-serif; font-size: 12px; font-weight: 200;" fill="rgb(255, 255, 255)" stroke="none" stroke-width="1px">0.4</text><text x="0" y="78.66666666666666" dx="0em" dy="0.3em" style="text-anchor: end; visibility: inherit; font-family: Roboto, sans-serif; font-size: 12px; font-weight: 200;" fill="rgb(255, 255, 255)" stroke="none" stroke-width="1px">0.5</text><text x="0" y="59.00000000000001" dx="0em" dy="0.3em" style="text-anchor: end; visibility: hidden; font-family: Roboto, sans-serif; font-size: 12px; font-weight: 200;" fill="rgb(255, 255, 255)" stroke="none" stroke-width="1px">0.6</text><text x="0" y="39.33333333333335" dx="0em" dy="0.3em" style="text-anchor: end; visibility: inherit; font-family: Roboto, sans-serif; font-size: 12px; font-weight: 200;" fill="rgb(255, 255, 255)" stroke="none" stroke-width="1px">0.7</text><text x="0" y="19.666666666666657" dx="0em" dy="0.3em" style="text-anchor: end; visibility: hidden; font-family: Roboto, sans-serif; font-size: 12px; font-weight: 200;" fill="rgb(255, 255, 255)" stroke="none" stroke-width="1px">0.8</text><text x="0" y="0" dx="0em" dy="0.3em" style="text-anchor: end; visibility: hidden; font-family: Roboto, sans-serif; font-size: 12px; font-weight: 200;" fill="rgb(255, 255, 255)" stroke="none" stroke-width="1px">0.9</text></g><line x1="41.171875" y1="0" x2="41.171875" y2="177" fill="rgb(0, 0, 0)" stroke="rgb(204, 204, 204)" stroke-width="1px"></line></g></g><g transform="translate(41, 0)" clip-path="url(#clip_0)"><clipPath id="clip_0"><rect width="288" height="177"></rect></clipPath><g><g><g><line x1="0" y1="0" x2="0" y2="177" fill="rgb(0, 0, 0)" stroke="rgb(189, 189, 189)" stroke-width="1px" opacity="0.25"></line><line x1="36.103515625" y1="0" x2="36.103515625" y2="177" fill="rgb(0, 0, 0)" stroke="rgb(189, 189, 189)" stroke-width="1px" opacity="0.25"></line><line x1="72.20703125" y1="0" x2="72.20703125" y2="177" fill="rgb(0, 0, 0)" stroke="rgb(189, 189, 189)" stroke-width="1px" opacity="0.25"></line><line x1="108.310546875" y1="0" x2="108.310546875" y2="177" fill="rgb(0, 0, 0)" stroke="rgb(189, 189, 189)" stroke-width="1px" opacity="0.25"></line><line x1="144.4140625" y1="0" x2="144.4140625" y2="177" fill="rgb(0, 0, 0)" stroke="rgb(189, 189, 189)" stroke-width="1px" opacity="0.25"></line><line x1="180.517578125" y1="0" x2="180.517578125" y2="177" fill="rgb(0, 0, 0)" stroke="rgb(189, 189, 189)" stroke-width="1px" opacity="0.25"></line><line x1="216.62109375" y1="0" x2="216.62109375" y2="177" fill="rgb(0, 0, 0)" stroke="rgb(189, 189, 189)" stroke-width="1px" opacity="0.25"></line><line x1="252.724609375" y1="0" x2="252.724609375" y2="177" fill="rgb(0, 0, 0)" stroke="rgb(189, 189, 189)" stroke-width="1px" opacity="0.25"></line><line x1="288.828125" y1="0" x2="288.828125" y2="177" fill="rgb(0, 0, 0)" stroke="rgb(189, 189, 189)" stroke-width="1px" opacity="0.25"></line></g><g><line x1="0" y1="177" x2="288.828125" y2="177" fill="rgb(0, 0, 0)" stroke="rgb(189, 189, 189)" stroke-width="1px" opacity="0.25"></line><line x1="0" y1="157.33333333333331" x2="288.828125" y2="157.33333333333331" fill="rgb(0, 0, 0)" stroke="rgb(189, 189, 189)" stroke-width="1px" opacity="0.25"></line><line x1="0" y1="137.66666666666666" x2="288.828125" y2="137.66666666666666" fill="rgb(0, 0, 0)" stroke="rgb(189, 189, 189)" stroke-width="1px" opacity="0.25"></line><line x1="0" y1="118.00000000000001" x2="288.828125" y2="118.00000000000001" fill="rgb(0, 0, 0)" stroke="rgb(189, 189, 189)" stroke-width="1px" opacity="0.25"></line><line x1="0" y1="98.33333333333334" x2="288.828125" y2="98.33333333333334" fill="rgb(0, 0, 0)" stroke="rgb(189, 189, 189)" stroke-width="1px" opacity="0.25"></line><line x1="0" y1="78.66666666666666" x2="288.828125" y2="78.66666666666666" fill="rgb(0, 0, 0)" stroke="rgb(189, 189, 189)" stroke-width="1px" opacity="0.25"></line><line x1="0" y1="59.00000000000001" x2="288.828125" y2="59.00000000000001" fill="rgb(0, 0, 0)" stroke="rgb(189, 189, 189)" stroke-width="1px" opacity="0.25"></line><line x1="0" y1="39.33333333333335" x2="288.828125" y2="39.33333333333335" fill="rgb(0, 0, 0)" stroke="rgb(189, 189, 189)" stroke-width="1px" opacity="0.25"></line><line x1="0" y1="19.666666666666657" x2="288.828125" y2="19.666666666666657" fill="rgb(0, 0, 0)" stroke="rgb(189, 189, 189)" stroke-width="1px" opacity="0.25"></line><line x1="0" y1="0" x2="288.828125" y2="0" fill="rgb(0, 0, 0)" stroke="rgb(189, 189, 189)" stroke-width="1px" opacity="0.25"></line></g></g></g><g><g><line x1="0" y1="177" x2="288.828125" y2="177" fill="rgb(0, 0, 0)" stroke="rgb(153, 153, 153)" stroke-width="1.5px"></line></g></g><g><g><line x1="36.103515625" y1="0" x2="36.103515625" y2="177" fill="rgb(0, 0, 0)" stroke="rgb(153, 153, 153)" stroke-width="1.5px"></line></g></g><g><g><g><g><g><path stroke="rgb(0, 153, 136)" stroke-width="2px" d="M36.103515625,176.3106604553759L43.32421875,170.27834120023195L50.544921875,165.6785550691243L57.765625,93.13963379944286L64.986328125,63.886651017148196L72.20703125,42.49088999080723L79.427734375,35.40169863166703L86.6484375,31.34623930680517L93.869140625,29.607357298629836L101.08984375,23.162853203140482L108.310546875,18.975798629852694L115.53125,21.71095248199104L122.751953125,15.783706241590144L129.97265625,13.133536647238097L137.193359375,11.374923770932007L144.4140625,10.362090606747513L151.634765625,10.386936192377453L158.85546875,9.002831432992659L166.076171875,7.9076934795569045L173.296875,8.553886938028025L180.517578125,9.050276043182905L187.73828125,8.808824872882457L194.958984375,8.72283069839455L202.1796875,8.59264940736941" style="fill: none;" fill="none"></path></g><g><path stroke="rgb(238, 51, 119)" stroke-width="2px" d="M36.103515625,142.65414215127626L43.32421875,88.94262542179754L50.544921875,62.95034663839805L57.765625,52.176199990271776L64.986328125,44.37331346481286L72.20703125,38.74330537268205L79.427734375,35.60658270029599L86.6484375,33.51088383909952L93.869140625,32.668921551892915L101.08984375,29.32632680115382L108.310546875,28.948881307746582L115.53125,28.356509889317575L122.751953125,28.12875503595711L129.97265625,25.602795378954493L137.193359375,25.886071284218364L144.4140625,24.877523008232693L151.634765625,23.384495823577467L158.85546875,23.693656910298113L166.076171875,21.05886878583961L173.296875,20.83364735696456L180.517578125,22.780925400781175L187.73828125,21.79025137447239L194.958984375,22.07328899028162L202.1796875,20.212519452879548" style="fill: none;" fill="none"></path></g><g><path stroke="rgb(255, 112, 67)" stroke-width="2px" d="M36.103515625,169.00270225604373L43.32421875,168.8093053270429L50.544921875,153.5488780479616L57.765625,86.84983851742082L64.986328125,61.73866072980511L72.20703125,35.75277049986928L79.427734375,30.266026588296256L86.6484375,24.51637182472224L93.869140625,21.680668437107435L101.08984375,19.056064760027937L108.310546875,15.9053240036962L115.53125,15.292765449426753L122.751953125,17.907960077338288L129.97265625,17.86038412835838L137.193359375,19.157732865535483L144.4140625,18.110351825175304" style="fill: none;" fill="none"></path></g><g><path stroke="rgb(187, 187, 187)" stroke-width="2px" d="M36.103515625,139.94884393612543L43.32421875,94.45692200632924L50.544921875,63.802186709656254L57.765625,49.577266440259244L64.986328125,44.52467362132517L72.20703125,39.305205585365556L79.427734375,36.92456563107371L86.6484375,37.35935018715789L93.869140625,35.976065517975265L101.08984375,32.15015360803965L108.310546875,30.47435515850175L115.53125,29.03668819000757L122.751953125,27.248076590994355L129.97265625,28.270987958021923L137.193359375,26.218952856154626L144.4140625,26.1495675774368" style="fill: none;" fill="none"></path></g><g><path stroke="rgb(238, 51, 119)" stroke-width="2px" d="M36.103515625,82.10330120722453L43.32421875,101.63858665549714L50.544921875,87.42176677791478L57.765625,68.55516594367064L64.986328125,41.862412967713816L72.20703125,32.68833388824252L79.427734375,27.737216674507533L86.6484375,25.27317320229814L93.869140625,23.235925624708173L101.08984375,30.37197600009032L108.310546875,24.578245667152444L115.53125,22.753579253014948L122.751953125,29.79859733952175L129.97265625,24.800608250616122L137.193359375,23.910956089038198L144.4140625,20.242429104456395L151.634765625,19.086688755960417L158.85546875,19.088814883997234L166.076171875,18.840508162486383L173.296875,18.57679795941136L180.517578125,18.506083384987367L187.73828125,18.529098922812338L194.958984375,17.920114029369035L202.1796875,18.297978497679566L209.400390625,18.165338247853526L216.62109375,18.0141646891095L223.841796875,18.30364449938015L231.0625,18.454837405370956" style="fill: none;" fill="none"></path></g><g><path stroke="rgb(51, 187, 238)" stroke-width="2px" d="M36.103515625,131.43723261356354L43.32421875,88.16704018383196L50.544921875,64.42178755421286L57.765625,54.073018096291776L64.986328125,49.919862036862796L72.20703125,46.061991812803285L79.427734375,46.139803929117086L86.6484375,43.98589110872164L93.869140625,40.716628908743985L101.08984375,40.65798148257242L108.310546875,39.47861336402539L115.53125,38.182266598405796L122.751953125,39.08248104338634L129.97265625,38.47709745341132L137.193359375,38.938967126245394L144.4140625,38.57349582757966L151.634765625,36.44632089435682L158.85546875,37.24661265925083L166.076171875,35.796137972948046L173.296875,35.327661104962395L180.517578125,36.05549387911515L187.73828125,34.95789963734919L194.958984375,34.047871422152106L202.1796875,33.876941977229535L209.400390625,34.67838646423056L216.62109375,34.598175340892766L223.841796875,33.55287895041952L231.0625,35.305089659975415" style="fill: none;" fill="none"></path></g><g><path stroke="rgb(0, 119, 187)" stroke-width="2px" d="M36.103515625,168.6838813200593L43.32421875,174.03460851171607" style="fill: none;" fill="none"></path></g><g><path stroke="rgb(255, 112, 67)" stroke-width="2px" d="M36.103515625,154.59864715238413L43.32421875,107.87932287653678" style="fill: none;" fill="none"></path></g><g><path stroke="rgb(0, 153, 136)" stroke-width="2px" d="M36.103515625,168.8907057121396L43.32421875,168.86148181935158L50.544921875,113.26515970974992L57.765625,81.10890498489655L64.986328125,124.39694020057364L72.20703125,53.65442419747659L79.427734375,26.002184565021373L86.6484375,16.557613896416278L93.869140625,12.309669607973742L101.08984375,9.962886372579067L108.310546875,7.892180636280739L115.53125,8.291987110237134L122.751953125,7.377002514184561L129.97265625,6.2510147684059065L137.193359375,6.411422305423532L144.4140625,8.00532758807014L151.634765625,6.414988448414579L158.85546875,6.229798238882999L166.076171875,6.029056811671363L173.296875,6.357202293601442L180.517578125,5.7729797525205L187.73828125,5.961400646497704L194.958984375,6.116536140023354L202.1796875,5.76236457523202L209.400390625,5.828899010407349L216.62109375,5.701395110108219" style="fill: none;" fill="none"></path></g><g><path stroke="rgb(238, 51, 119)" stroke-width="2px" d="M36.103515625,88.52303069829941L43.32421875,49.26137244543751L50.544921875,34.42607924145448L57.765625,30.842521105506457L64.986328125,26.91552933199185L72.20703125,24.072400288634334L79.427734375,21.460745942708833L86.6484375,21.41169737478255L93.869140625,17.84026175848921L101.08984375,17.01317155556684L108.310546875,16.994890308524194L115.53125,17.027652330457645L122.751953125,16.233902223526663L129.97265625,16.62599132386968L137.193359375,15.191124370880301L144.4140625,15.162727254139309L151.634765625,13.817904130486237L158.85546875,13.466575864262143L166.076171875,13.841218054006562L173.296875,13.853800548971616L180.517578125,13.018510147475013L187.73828125,12.784749034524047L194.958984375,12.858461471666962L202.1796875,13.315221921155564L209.400390625,12.36326433321345L216.62109375,13.455227897489461" style="fill: none;" fill="none"></path></g><g><path stroke="rgb(255, 112, 67)" stroke-width="2px" d="M36.103515625,176.74894676939584L43.32421875,166.04186051855874L50.544921875,168.1739189791715L57.765625,166.35388506117164L64.986328125,138.28333986647283L72.20703125,99.56518097432456L79.427734375,68.17379791162406L86.6484375,37.76954789818308L93.869140625,27.394921972518166L101.08984375,21.98700404947569L108.310546875,18.99334897113053L115.53125,16.819445250412585L122.751953125,15.241278337084408L129.97265625,13.973886533497183L137.193359375,14.032167228851998L144.4140625,15.33014710827332L151.634765625,15.173026333160491L158.85546875,14.424240497441343L166.076171875,14.085999845299247" style="fill: none;" fill="none"></path></g><g><path stroke="rgb(187, 187, 187)" stroke-width="2px" d="M36.103515625,154.44764703015485L43.32421875,100.15175488796041L50.544921875,68.72101825979918L57.765625,54.20234599535041L64.986328125,46.75938778104406L72.20703125,42.62416564788741L79.427734375,39.493562901402385L86.6484375,37.14191243373594L93.869140625,35.88431366883701L101.08984375,36.58982151982796L108.310546875,35.21142957158776L115.53125,34.474389940496785L122.751953125,32.96742608640276L129.97265625,32.50352904649905L137.193359375,31.16875341637907L144.4140625,32.37971608073932L151.634765625,31.395710883870073L158.85546875,30.06865298969599L166.076171875,28.503526652751788" style="fill: none;" fill="none"></path></g><g><path stroke="rgb(255, 112, 67)" stroke-width="2px" d="M36.103515625,168.78261927018565L43.32421875,168.9266599460531L50.544921875,169.49924356579655L57.765625,168.95616339845512L64.986328125,168.88634328702233L72.20703125,93.10009284822837L79.427734375,47.6694781263135L86.6484375,28.348288021757156L93.869140625,22.98565234335744L101.08984375,19.315358810446874L108.310546875,17.76087307536006L115.53125,19.04665822892635L122.751953125,18.128322997528503L129.97265625,16.049010634132806L137.193359375,13.93107391254746L144.4140625,13.730882283714221L151.634765625,14.251197219397758L158.85546875,13.898136296742152L166.076171875,12.816999514054492L173.296875,13.177929517319022L180.517578125,12.20048346135518L187.73828125,13.126424173332465L194.958984375,12.78889900550254L202.1796875,12.765246538824528L209.400390625,12.966804705721465L216.62109375,13.035252350933153" style="fill: none;" fill="none"></path></g><g><path stroke="rgb(187, 187, 187)" stroke-width="2px" d="M36.103515625,140.11451445023218L43.32421875,86.23604318322421L50.544921875,53.41169698808224L57.765625,39.571637613630394L64.986328125,33.96301379670602L72.20703125,29.797189099707104L79.427734375,28.35722570782606L86.6484375,27.108095359758455L93.869140625,25.63663031400196L101.08984375,25.965019536257195L108.310546875,25.43154321695236L115.53125,25.647862578446375L122.751953125,23.991569143795935L129.97265625,23.438371926074698L137.193359375,21.678253792288295L144.4140625,21.771498663593228L151.634765625,21.91141448161633L158.85546875,22.166208518160232L166.076171875,22.232452203556505L173.296875,22.03185180343563L180.517578125,21.88590170852563L187.73828125,21.178855681876428L194.958984375,20.435664100247173L202.1796875,20.663393168770973L209.400390625,20.62704803565225L216.62109375,20.181119493595844" style="fill: none;" fill="none"></path></g><g><path stroke="rgb(238, 51, 119)" stroke-width="2px" d="M36.103515625,167.63507724553347L43.32421875,164.7514442423679L50.544921875,145.43115759708087L57.765625,127.7768911647715L64.986328125,76.52892551255577L72.20703125,48.170751313528214L79.427734375,30.11637569053043L86.6484375,23.250639169373034L93.869140625,24.533722367948133L101.08984375,17.406283555285125L108.310546875,13.510963097765261L115.53125,12.363361820170963L122.751953125,11.01560639989264L129.97265625,12.914540789271129L137.193359375,10.715601512449968L144.4140625,10.906233254637609L151.634765625,12.153675482193561L158.85546875,11.018621673808397L166.076171875,11.94826199807622L173.296875,11.424994107283625" style="fill: none;" fill="none"></path></g><g><path stroke="rgb(51, 187, 238)" stroke-width="2px" d="M36.103515625,121.63592211405437L43.32421875,81.83991633662693L50.544921875,60.24821818228582L57.765625,48.92005789817766L64.986328125,41.96210015672942L72.20703125,39.296124378175485L79.427734375,37.60344432777765L86.6484375,34.86379749158008L93.869140625,35.11171366814285L101.08984375,32.58177367711813L108.310546875,34.468565559394406L115.53125,31.9675344246909L122.751953125,29.393824448513286L129.97265625,30.164727905463256L137.193359375,31.301678800182675L144.4140625,28.967334642733313L151.634765625,28.438817390920423L158.85546875,27.548134902146074L166.076171875,28.17570439112831L173.296875,28.2571229869451" style="fill: none;" fill="none"></path></g><g><path stroke="rgb(187, 187, 187)" stroke-width="2px" d="M36.103515625,165.5778016845385L43.32421875,171.49613665022068L50.544921875,156.3550638187467L57.765625,155.49105379934647L64.986328125,130.32283721124037L72.20703125,93.35215057617155L79.427734375,70.31175337822481L86.6484375,41.69407956538688L93.869140625,24.840088210505968L101.08984375,16.540985859916663L108.310546875,20.38259407044696L115.53125,13.838182154577241L122.751953125,10.505986908259144L129.97265625,10.743982437627219L137.193359375,10.506327863780333L144.4140625,10.597223146222733L151.634765625,11.13553509277714L158.85546875,11.861944114750447" style="fill: none;" fill="none"></path></g><g><path stroke="rgb(0, 153, 136)" stroke-width="2px" d="M36.103515625,136.62375536561012L43.32421875,83.98094749780779L50.544921875,60.87200286827003L57.765625,49.27744784957113L64.986328125,41.16923302666436L72.20703125,38.051850555526066L79.427734375,35.871638825201835L86.6484375,35.2164928469677L93.869140625,33.65991557455943L101.08984375,30.378120868572683L108.310546875,31.572544512828337L115.53125,28.15548756474104L122.751953125,28.50849319126528L129.97265625,26.27554239638671L137.193359375,26.60538614544637L144.4140625,24.29129691708012L151.634765625,23.205767193771482L158.85546875,22.509323276250836" style="fill: none;" fill="none"></path></g><g><path stroke="rgb(51, 187, 238)" stroke-width="2px" d="M36.103515625,176.68969159022285L43.32421875,148.53853403883457L50.544921875,156.47678956611438L57.765625,66.28713371282211L64.986328125,51.39334903910082L72.20703125,27.862666918259794L79.427734375,26.227380943243663L86.6484375,18.612751692611994L93.869140625,26.227663837626242L101.08984375,18.465886847105303L108.310546875,21.29547077438343L115.53125,11.770875852422998L122.751953125,10.982225748899156L129.97265625,11.886486149446187L137.193359375,11.737106900624296L144.4140625,10.708831106787422L151.634765625,10.653972328092491" style="fill: none;" fill="none"></path></g><g><path stroke="rgb(204, 51, 17)" stroke-width="2px" d="M36.103515625,105.32510143518448L43.32421875,69.90112077760647L50.544921875,51.68874372311726L57.765625,42.556918999102024L64.986328125,37.021713217256L72.20703125,33.695019640970116L79.427734375,30.83029726684255L86.6484375,29.16617612326998L93.869140625,26.650028145783928L101.08984375,26.963667171222433L108.310546875,24.53382796493134L115.53125,24.085597487603035L122.751953125,23.098163446324552L129.97265625,22.183404852495062L137.193359375,22.204797012171174L144.4140625,20.798393150182065L151.634765625,23.51341167920171" style="fill: none;" fill="none"></path></g><g><path stroke="rgb(255, 112, 67)" stroke-width="2px" d="M36.103515625,169.036163409551L43.32421875,172.78670312379566L50.544921875,79.41113379519365L57.765625,54.652385703874096L64.986328125,29.426227386284687L72.20703125,18.961837553049936L79.427734375,17.835972331269364L86.6484375,14.196103338579801L93.869140625,12.585247014755486L101.08984375,12.280945941834148L108.310546875,11.460064904256475L115.53125,10.78089458094174L122.751953125,10.075532422090678L129.97265625,10.988682058429958L137.193359375,10.356721326258137L144.4140625,9.840219598319361L151.634765625,9.350124933131909L158.85546875,8.876008609362279L166.076171875,9.67020569320448L173.296875,8.757855289958355L180.517578125,8.739799996358736L187.73828125,8.97013126025501L194.958984375,8.702644996795062L202.1796875,8.850871317203985L209.400390625,9.04294478895688" style="fill: none;" fill="none"></path></g><g><path stroke="rgb(187, 187, 187)" stroke-width="2px" d="M36.103515625,106.12759472926459L43.32421875,63.25969268235276L50.544921875,46.585677459853564L57.765625,40.41117667136006L64.986328125,36.785541788901654L72.20703125,32.7203884884715L79.427734375,31.864159893962903L86.6484375,31.132854258039657L93.869140625,29.616276035527022L101.08984375,28.90963889465414L108.310546875,27.38915902700715L115.53125,25.584374154450753L122.751953125,24.03198237845325L129.97265625,23.686488824551446L137.193359375,23.427011304812837L144.4140625,23.7491182268197L151.634765625,22.82314825197694L158.85546875,22.049838726131828L166.076171875,21.795194474556677L173.296875,21.822870841326164L180.517578125,22.149782669089344L187.73828125,20.325372443626605L194.958984375,20.58999993557361L202.1796875,21.635932740372596L209.400390625,21.657398906774315" style="fill: none;" fill="none"></path></g><g><path stroke="rgb(238, 51, 119)" stroke-width="2px" d="M36.103515625,162.63682476679483L43.32421875,145.0961053959516L50.544921875,73.29377424353697L57.765625,37.69416502723593L64.986328125,28.895017429458356L72.20703125,26.018212859784974L79.427734375,21.618040680196906L86.6484375,20.00112527496282L93.869140625,18.128945013172878L101.08984375,18.64964124234727L108.310546875,18.583868526808637L115.53125,16.804706528958416L122.751953125,16.304047868236033L129.97265625,16.155317863555975L137.193359375,16.08013199994564L144.4140625,14.971132951889565L151.634765625,15.730754930684235L158.85546875,15.992996839444796L166.076171875,15.907390714066306L173.296875,14.91039039685093L180.517578125,15.41920620747778L187.73828125,14.861569774227188L194.958984375,16.15333219370954L202.1796875,15.203026483699317L209.400390625,15.962458035604971" style="fill: none;" fill="none"></path></g><g><path stroke="rgb(51, 187, 238)" stroke-width="2px" d="M36.103515625,138.38998145858446L43.32421875,76.9783344363926L50.544921875,53.436298518703765L57.765625,43.2033975534591L64.986328125,38.78901250512893L72.20703125,37.51724879827321L79.427734375,34.23462268713724L86.6484375,32.10584861613493L93.869140625,30.441597945897104L101.08984375,29.007016736005887L108.310546875,29.19081544392039L115.53125,28.589641678610633L122.751953125,26.800711262333834L129.97265625,25.554601689708285L137.193359375,27.04129920028013L144.4140625,27.084979494840795L151.634765625,26.997383441701242L158.85546875,26.009418684696303L166.076171875,25.301073186759606L173.296875,24.669097834796258L180.517578125,26.461468945678643L187.73828125,26.634208275249748L194.958984375,25.66018309751173L202.1796875,26.43205823773755L209.400390625,24.747326145420157" style="fill: none;" fill="none"></path></g><g><path stroke="rgb(187, 187, 187)" stroke-width="2px" d="M36.103515625,168.83688081800938L43.32421875,145.93979334148804L50.544921875,101.65416166684422L57.765625,56.281957517002674L64.986328125,39.35933426814528L72.20703125,29.688863322146048L79.427734375,27.500569147889294L86.6484375,22.403736479104108L93.869140625,21.155601690945275L101.08984375,18.704808912578514L108.310546875,16.707198228552752L115.53125,15.544444390851957L122.751953125,14.134363603980153L129.97265625,14.005602184878972L137.193359375,13.616988800260978L144.4140625,14.205071361312918L151.634765625,14.51563195855122L158.85546875,13.643036750498117L166.076171875,12.604016062874502L173.296875,12.12047818292093L180.517578125,12.69720205624956L187.73828125,12.704795534512357L194.958984375,11.86683073214936L202.1796875,11.644952176434018L209.400390625,11.780617115546551L216.62109375,12.273252211449778L223.841796875,12.342257980411901L231.0625,11.501466486599298L238.283203125,11.400443276080235L245.50390625,11.706375283206878L252.724609375,11.37886659765449L259.9453125,11.79934090175955L267.166015625,11.477348557383355" style="fill: none;" fill="none"></path></g><g><path stroke="rgb(0, 153, 136)" stroke-width="2px" d="M36.103515625,123.92263940970103L43.32421875,71.4397831189442L50.544921875,53.30540174340226L57.765625,44.8784527397807L64.986328125,39.63889891007954L72.20703125,36.60317087802022L79.427734375,35.745212735586904L86.6484375,32.705867662151164L93.869140625,30.41616523685042L101.08984375,29.988815403698624L108.310546875,29.02646132119099L115.53125,27.884849110455622L122.751953125,26.72449286975104L129.97265625,26.656671000508023L137.193359375,25.75141684360119L144.4140625,24.701298614258096L151.634765625,24.105128719886867L158.85546875,24.294872862087463L166.076171875,23.79832872024447L173.296875,23.890277441760958L180.517578125,24.3240299077467L187.73828125,23.918822573333472L194.958984375,22.718236301691903L202.1796875,22.40199809280828L209.400390625,22.85178017905485L216.62109375,23.44034461179851L223.841796875,22.837879548548237L231.0625,21.7110429223691L238.283203125,22.098834759280468L245.50390625,24.177255134657905L252.724609375,22.755594914932175L259.9453125,21.284053435919407L267.166015625,21.529684875947623" style="fill: none;" fill="none"></path></g><g><path stroke="rgb(187, 187, 187)" stroke-width="2px" d="M36.103515625,176.09385200589895L43.32421875,172.5310777308184L50.544921875,154.2884445040239L57.765625,112.78851643993639L64.986328125,93.64226862944334L72.20703125,76.94006854403267L79.427734375,69.19545293760626L86.6484375,56.05089231596398L93.869140625,36.06483167057183L101.08984375,34.28585447532401L108.310546875,27.68141310115415L115.53125,20.690795884504915L122.751953125,15.724433874363267L129.97265625,14.927699372933478L137.193359375,11.66187075391512L144.4140625,10.5377832998356L151.634765625,9.485541317449655L158.85546875,7.576042924893685L166.076171875,8.254291353356415L173.296875,8.576897174559479L180.517578125,8.349276875685115L187.73828125,8.27140478654492L194.958984375,7.782198654287138" style="fill: none;" fill="none"></path></g><g><path stroke="rgb(0, 153, 136)" stroke-width="2px" d="M36.103515625,123.81505262851714L43.32421875,64.12144913037245L50.544921875,39.10185560791727L57.765625,28.640743415204682L64.986328125,23.479554051807767L72.20703125,19.872366961524015L79.427734375,18.88892737866652L86.6484375,17.66204406480649L93.869140625,17.065152164578244L101.08984375,15.790012534418652L108.310546875,14.923853482182684L115.53125,12.442021838782562L122.751953125,13.83315596064101L129.97265625,12.83128582146524L137.193359375,12.09239337586951L144.4140625,12.119092874910034L151.634765625,10.868148828618162L158.85546875,12.373076143654433L166.076171875,11.939494610800185L173.296875,11.275185784401817L180.517578125,11.201497350485742L187.73828125,10.717208634632604L194.958984375,10.269604399714071" style="fill: none;" fill="none"></path></g><g><path stroke="rgb(51, 187, 238)" stroke-width="2px" d="M36.103515625,168.9200062006712L43.32421875,132.65081862849337L50.544921875,75.16072532654627L57.765625,55.44897830993456L64.986328125,43.13942608188713L72.20703125,34.576971371508456L79.427734375,24.557820844588317L86.6484375,20.92668185475889L93.869140625,21.521430251272456L101.08984375,21.20300100519473L108.310546875,19.191486837921474L115.53125,17.86889816616646L122.751953125,17.68786900020507L129.97265625,16.382550068634785L137.193359375,17.590560952054716L144.4140625,17.882910450725923L151.634765625,18.55152043896126L158.85546875,15.626093396603524L166.076171875,16.880308516082838L173.296875,15.746004360094952L180.517578125,16.108125851759674L187.73828125,16.637665043806404L194.958984375,15.61644368660058" style="fill: none;" fill="none"></path></g><g><path stroke="rgb(204, 51, 17)" stroke-width="2px" d="M36.103515625,138.1068188647429L43.32421875,90.49827860277435L50.544921875,68.5066798284016L57.765625,57.162478499767815L64.986328125,50.002519030376874L72.20703125,46.21320920868704L79.427734375,43.431226872170775L86.6484375,40.58029739503481L93.869140625,38.03666154035414L101.08984375,38.83723990475606L108.310546875,38.73164178407307L115.53125,36.62196148884457L122.751953125,36.76979883294002L129.97265625,34.35909076329692L137.193359375,34.10698463451851L144.4140625,33.5749764488583L151.634765625,33.4650536869359L158.85546875,35.16257984385704L166.076171875,34.541894479662155L173.296875,33.5042100123421L180.517578125,33.044540799032646L187.73828125,33.341174966900965L194.958984375,33.49212231757145" style="fill: none;" fill="none"></path></g><g><path stroke="rgb(255, 112, 67)" stroke-width="2px" d="M36.103515625,168.2063081935048L43.32421875,167.7265564809356L50.544921875,167.2212475073513L57.765625,166.80957213134295L64.986328125,167.30959413546952L72.20703125,167.3835960349554L79.427734375,160.23571418391853L86.6484375,148.6049783328818L93.869140625,142.0528999304513L101.08984375,135.83699562276976L108.310546875,132.78647750576096L115.53125,128.75113256889475L122.751953125,125.57877775966733L129.97265625,124.47114555452667L137.193359375,120.5926528126972L144.4140625,117.10278781109804L151.634765625,109.9234059781061L158.85546875,107.4261137487261L166.076171875,99.57357785434245L173.296875,91.21734629127222L180.517578125,87.42808009324347L187.73828125,85.40610664066234L194.958984375,81.93453075246575L202.1796875,81.169209777748L209.400390625,76.19125668484551L216.62109375,76.79304266683312L223.841796875,75.2703602386553L231.0625,75.32567441204584L238.283203125,74.85489768696681L245.50390625,74.75645003814707" style="fill: none;" fill="none"></path></g><g><path stroke="rgb(187, 187, 187)" stroke-width="2px" d="M36.103515625,165.25740044315657L43.32421875,158.28120061492976L50.544921875,153.81570182711192L57.765625,149.39827492742847L64.986328125,146.9673474357896L72.20703125,144.67471146529277L79.427734375,142.99860746433154L86.6484375,142.99217646763546L93.869140625,141.20530214591514L101.08984375,141.16337103111334L108.310546875,139.45298147558034L115.53125,139.32084222414483L122.751953125,138.82741622392984L129.97265625,136.56507515443863L137.193359375,136.91108952542245L144.4140625,135.4300139464482L151.634765625,134.70225058387575L158.85546875,132.63935484048696L166.076171875,131.02773917505056L173.296875,129.66572023336735L180.517578125,127.70407922018252L187.73828125,125.02337916136666L194.958984375,124.00993186785132L202.1796875,122.8626883457011L209.400390625,119.76776252724372L216.62109375,117.95774426828599L223.841796875,116.91501785082042L231.0625,116.46787168687722L238.283203125,116.40736850360014L245.50390625,117.30286638866563" style="fill: none;" fill="none"></path></g><g><path stroke="rgb(238, 51, 119)" stroke-width="2px" d="M36.103515625,168.9230766966939L43.32421875,154.2729127163189L50.544921875,155.57489868914186L57.765625,146.86503032878315L64.986328125,135.36521503403156L72.20703125,131.0909117717534L79.427734375,97.43023017592421L86.6484375,52.8505637135411L93.869140625,35.42773631043269L101.08984375,27.186279169171414L108.310546875,24.379341750933L115.53125,26.39908618898394L122.751953125,27.495437155218234L129.97265625,21.954291220486272L137.193359375,21.893046519167832L144.4140625,19.822916077366855L151.634765625,20.371767385281743L158.85546875,19.541914752950387L166.076171875,22.207535131932914L173.296875,22.1731460349122L180.517578125,21.341829395530013" style="fill: none;" fill="none"></path></g><g><path stroke="rgb(51, 187, 238)" stroke-width="2px" d="M36.103515625,158.4837015916904L43.32421875,119.23331552686554L50.544921875,84.22256044780451L57.765625,67.45684528931581L64.986328125,58.57771524029083L72.20703125,54.43431333125861L79.427734375,50.52178472309646L86.6484375,48.637889493464165L93.869140625,47.523357024347014L101.08984375,47.374081132024905L108.310546875,45.92179165692285L115.53125,46.045104387616675L122.751953125,44.27586437101505L129.97265625,40.38995534952322L137.193359375,39.735554004074196L144.4140625,39.03942509570074L151.634765625,38.56846879785328L158.85546875,37.13020844002458L166.076171875,36.371531786625695L173.296875,35.149025055476216L180.517578125,36.87158033735735" style="fill: none;" fill="none"></path></g></g></g></g><g opacity="0.2"><g><g><g><path stroke="rgb(0, 153, 136)" stroke-width="2px" d="M36.103515625,176.3106604553759L43.32421875,168.63151804357767L50.544921875,164.07999599476653L57.765625,66.45434788862865L64.986328125,52.9627099831899L72.20703125,34.46862669785818L79.427734375,32.74069718519848L86.6484375,29.823522289594013L93.869140625,28.954399744669605L101.08984375,20.742860356966656L108.310546875,17.403497020403552L115.53125,22.738045374552403L122.751953125,13.557931900024421L129.97265625,12.138356089591992L137.193359375,10.71453682581584L144.4140625,9.98175573348999L151.634765625,10.396266102790833L158.85546875,8.483078201611841L166.076171875,7.496451854705824L173.296875,8.796542803446455L180.517578125,9.236678004264844L187.73828125,8.71815613905589L194.958984375,8.69053852558136L202.1796875,8.543764273325605" style="fill: none;" fill="none"></path></g><g><path stroke="rgb(238, 51, 119)" stroke-width="2px" d="M36.103515625,142.65414215127626L43.32421875,74.27938135464987L50.544921875,53.91727598508199L57.765625,48.21265629927317L64.986328125,41.459481636683144L72.20703125,36.63235418001811L79.427734375,34.42918133735658L86.6484375,32.72400470574698L93.869140625,32.35276114940643L101.08984375,28.07114017009735L108.310546875,28.807144880294807L115.53125,28.134065190951024L122.751953125,28.04322950045267L129.97265625,24.654257615407314L137.193359375,25.992445866266888L144.4140625,24.498797178268433L151.634765625,22.82384049892427L158.85546875,23.809751788775127L166.076171875,20.069464166959136L173.296875,20.749073147773757L180.517578125,23.5121591091156L187.73828125,21.41823760668436L194.958984375,22.179574092229217L202.1796875,19.51377105712892" style="fill: none;" fill="none"></path></g><g><path stroke="rgb(255, 112, 67)" stroke-width="2px" d="M36.103515625,169.00270225604373L43.32421875,168.75650796542567L50.544921875,148.24543701608977L57.765625,62.31290153662364L64.986328125,52.36139388879141L72.20703125,26.00945484638214L79.427734375,28.206520398457844L86.6484375,22.35752952098848L93.869140625,20.61584981282553L101.08984375,18.070492863655097L108.310546875,14.722173730532331L115.53125,15.062740166982026L122.751953125,18.890006860097248L129.97265625,17.842518607775364L137.193359375,19.644907832145705L144.4140625,17.71704367796581" style="fill: none;" fill="none"></path></g><g><path stroke="rgb(187, 187, 187)" stroke-width="2px" d="M36.103515625,139.94884393612543L43.32421875,82.03762731949489L50.544921875,53.148777206738785L57.765625,44.344267964363105L64.986328125,42.63788394133251L72.20703125,37.34818490346274L79.427734375,36.03096775213877L86.6484375,37.52260021368664L93.869140625,35.45663626988729L101.08984375,30.713475267092388L108.310546875,29.84506777922312L115.53125,28.496821840604156L122.751953125,26.576424757639575L129.97265625,28.655107339223225L137.193359375,25.448381225268047L144.4140625,26.123512307802844" style="fill: none;" fill="none"></path></g><g><path stroke="rgb(238, 51, 119)" stroke-width="2px" d="M36.103515625,82.10330120722453L43.32421875,106.97171958287556L50.544921875,82.48100958267848L57.765625,61.61460729440054L64.986328125,31.894538521766677L72.20703125,29.248546083768208L79.427734375,25.878763516743977L86.6484375,24.347990473111476L93.869140625,22.47093053658804L101.08984375,33.05165322621664L108.310546875,22.402613282203674L115.53125,22.06838858127594L122.751953125,32.44411261876425L129.97265625,22.923784375190735L137.193359375,23.576877633730565L144.4140625,18.864839196205153L151.634765625,18.652689973513287L158.85546875,19.089613278706867L166.076171875,18.747265060742695L173.296875,18.47777060667674L180.517578125,18.479528943697606L187.73828125,18.537741621335346L194.958984375,17.691430568695075L202.1796875,18.439872582753505L209.400390625,18.115529735883076L216.62109375,17.95739662647248L223.841796875,18.412348747253432L231.0625,18.511612733205165" style="fill: none;" fill="none"></path></g><g><path stroke="rgb(51, 187, 238)" stroke-width="2px" d="M36.103515625,131.43723261356354L43.32421875,76.35427765051524L50.544921875,56.16962365309398L57.765625,50.26596021652222L64.986328125,48.36894901593527L72.20703125,44.615497310956314L79.427734375,46.16901151339213L86.6484375,43.17715418338777L93.869140625,39.489007115364075L101.08984375,40.6359586318334L108.310546875,39.03574299812318L115.53125,37.69546818733217L122.751953125,39.420525749524444L129.97265625,38.249766349792495L137.193359375,39.11240649223328L144.4140625,38.43625557422639L151.634765625,35.64753305912018L158.85546875,37.547134876251235L166.076171875,35.251461784044906L173.296875,35.151740630467735L180.517578125,36.328806598981224L187.73828125,34.5457356373469L194.958984375,33.70614143212636L202.1796875,33.81275526682536L209.400390625,34.979341546694435L216.62109375,34.5680547952652L223.841796875,33.160353620847076L231.0625,35.963072498639434" style="fill: none;" fill="none"></path></g><g><path stroke="rgb(0, 119, 187)" stroke-width="2px" d="M36.103515625,168.6838813200593L43.32421875,175.49535703503838" style="fill: none;" fill="none"></path></g><g><path stroke="rgb(255, 112, 67)" stroke-width="2px" d="M36.103515625,154.59864715238413L43.32421875,95.12494734923045" style="fill: none;" fill="none"></path></g><g><path stroke="rgb(0, 153, 136)" stroke-width="2px" d="M36.103515625,168.8907057121396L43.32421875,168.85350369662046L50.544921875,93.94382548332214L57.765625,69.27940936883292L64.986328125,140.56199070811272L72.20703125,27.12977341810863L79.427734375,15.622629841168733L86.6484375,13.011429031689959L93.869140625,10.714548548062654L101.08984375,9.081639568010974L108.310546875,7.114599665006L115.53125,8.442120671272285L122.751953125,7.0334113836288585L129.97265625,5.8281885782877625L137.193359375,6.471657872200012L144.4140625,8.603864232699072L151.634765625,5.81779094537099L158.85546875,6.160256385803229L166.076171875,5.9536752303441345L173.296875,6.480426112810779L180.517578125,5.553594946861267L187.73828125,6.032155672709155L194.958984375,6.174791971842456L202.1796875,5.62936755021413L209.400390625,5.853883743286139L216.62109375,5.653515378634143" style="fill: none;" fill="none"></path></g><g><path stroke="rgb(238, 51, 119)" stroke-width="2px" d="M36.103515625,88.52303069829941L43.32421875,38.54293974240621L50.544921875,29.270384629567463L57.765625,29.524218161900837L64.986328125,25.449072837829597L72.20703125,23.0063793261846L79.427734375,20.480434417724616L86.6484375,21.39328094323477L93.869140625,16.499172568321235L101.08984375,16.702588717142735L108.310546875,16.988025426864624L115.53125,17.039954980214436L122.751953125,15.93583655357362L129.97265625,16.773226976394653L137.193359375,14.652309139569605L144.4140625,15.15206368764242L151.634765625,13.312901775042219L158.85546875,13.334646542867036L166.076171875,13.981902122497559L173.296875,13.858525474866235L180.517578125,12.704845388730364L187.73828125,12.696968038876856L194.958984375,12.886141657829297L202.1796875,13.486742695172632L209.400390625,12.005789200464893L216.62109375,13.865277489026392" style="fill: none;" fill="none"></path></g><g><path stroke="rgb(255, 112, 67)" stroke-width="2px" d="M36.103515625,176.74894676939584L43.32421875,163.11882597208023L50.544921875,168.91487112392983L57.765625,165.68433932463327L64.986328125,127.80095648765563L72.20703125,85.04794718821844L79.427734375,56.39071695009867L86.6484375,26.3535614013672L93.869140625,23.49920602639516L101.08984375,19.956262429555267L108.310546875,17.869186719258625L115.53125,16.003110527992256L122.751953125,14.648651798566194L129.97265625,13.497960885365815L137.193359375,14.054052551587434L144.4140625,15.81755908330282L151.634765625,15.114024996757507L158.85546875,14.14305957158407L166.076171875,13.95898512999217" style="fill: none;" fill="none"></path></g><g><path stroke="rgb(187, 187, 187)" stroke-width="2px" d="M36.103515625,154.44764703015485L43.32421875,85.32897633314133L50.544921875,57.79792579015097L57.765625,48.86128338177999L64.986328125,43.97996397813161L72.20703125,41.073679049809776L79.427734375,38.31845871607463L86.6484375,36.25893028577168L93.869140625,35.412080009778336L101.08984375,36.85474864641826L108.310546875,34.693822781244926L115.53125,34.19762007395427L122.751953125,32.401537418365486L129.97265625,32.329328378041595L137.193359375,30.667524059613545L144.4140625,32.834451715151474L151.634765625,31.026201367378235L158.85546875,29.570321758588154L166.076171875,27.91579695542654" style="fill: none;" fill="none"></path></g><g><path stroke="rgb(255, 112, 67)" stroke-width="2px" d="M36.103515625,168.78261927018565L43.32421875,168.96598305056492L50.544921875,169.69823297858238L57.765625,168.75637755542994L64.986328125,168.8602703635891L72.20703125,64.68431206544241L79.427734375,30.616626063982647L86.6484375,21.093695481618244L93.869140625,20.97195994853974L101.08984375,17.9371171394984L108.310546875,17.177140434583034L115.53125,19.529490590095534L122.751953125,17.78347365061442L129.97265625,15.268195986747749L137.193359375,13.135755181312573L144.4140625,13.655707160631824L151.634765625,14.446583708127344L158.85546875,13.765556335449226L166.076171875,12.41101555029552L173.296875,13.313464442888904L180.517578125,11.833437005678809L187.73828125,13.474129557609558L194.958984375,12.66215296586355L202.1796875,12.75636466344198L209.400390625,13.042492985725415L216.62109375,13.060955524444593" style="fill: none;" fill="none"></path></g><g><path stroke="rgb(187, 187, 187)" stroke-width="2px" d="M36.103515625,140.11451445023218L43.32421875,71.52722052733104L50.544921875,42.00428477923075L57.765625,34.480219999949135L64.986328125,31.868585467338576L72.20703125,28.235228180885322L79.427734375,27.81672052542368L86.6484375,26.63908016681671L93.869140625,25.084088961283367L101.08984375,26.088333845138564L108.310546875,25.231214880943305L115.53125,25.729093869527187L122.751953125,23.369604865709942L129.97265625,23.23063762982687L137.193359375,21.01730159918468L144.4140625,21.80651358763377L151.634765625,21.963955084482837L158.85546875,22.26188770929973L166.076171875,22.257327755292266L173.296875,21.95652318000795L180.517578125,21.83109513918559L187.73828125,20.9133487145106L194.958984375,20.156583905220046L202.1796875,20.74890903631847L209.400390625,20.613399863243117L216.62109375,20.01366627216339" style="fill: none;" fill="none"></path></g><g><path stroke="rgb(238, 51, 119)" stroke-width="2px" d="M36.103515625,167.63507724553347L43.32421875,163.9642124325037L50.544921875,138.71679769953093L57.765625,121.28232053915659L64.986328125,57.39139827092489L72.20703125,37.53795635700227L79.427734375,23.339478691418964L86.6484375,20.672737876574207L93.869140625,25.015525539716094L101.08984375,14.729840079943335L108.310546875,12.048212011655169L115.53125,11.932419657707227L122.751953125,10.509503006935127L129.97265625,13.627620657285066L137.193359375,9.889865040779114L144.4140625,10.977818489074714L151.634765625,12.622109770774841L158.85546875,10.592391014099121L166.076171875,12.297356645266218L173.296875,11.22849873701731" style="fill: none;" fill="none"></path></g><g><path stroke="rgb(51, 187, 238)" stroke-width="2px" d="M36.103515625,121.63592211405437L43.32421875,70.97560675938925L50.544921875,52.74447691440582L57.765625,44.75270620981853L64.986328125,39.363790074984244L72.20703125,38.29652639230093L79.427734375,36.96807932853699L86.6484375,33.83513303597769L93.869140625,35.20480724175771L101.08984375,31.631749192873638L108.310546875,35.177084128061935L115.53125,31.0283582607905L122.751953125,28.42735580603281L129.97265625,30.454214334487922L137.193359375,31.72862184047699L144.4140625,28.09075148900351L151.634765625,28.24035080273947L158.85546875,27.213669538497932L166.076171875,28.41136666138968L173.296875,28.28769695758821" style="fill: none;" fill="none"></path></g><g><path stroke="rgb(187, 187, 187)" stroke-width="2px" d="M36.103515625,165.5778016845385L43.32421875,173.1118420958519L50.544921875,151.09310191869736L57.765625,155.17320575316745L64.986328125,120.92427037159602L72.20703125,79.49012519915898L79.427734375,61.663301507631935L86.6484375,30.94890487194062L93.869140625,18.511343121528625L101.08984375,13.42456789811452L108.310546875,21.82517540454866L115.53125,11.380653500556958L122.751953125,9.254695097605383L129.97265625,10.833353519439697L137.193359375,10.417084813117988L144.4140625,10.631355762481697L151.634765625,11.337679743766792L158.85546875,12.13472219308217" style="fill: none;" fill="none"></path></g><g><path stroke="rgb(0, 153, 136)" stroke-width="2px" d="M36.103515625,136.62375536561012L43.32421875,69.60946094989777L50.544921875,52.84097445011138L57.765625,45.012096087137856L64.986328125,38.14138245582581L72.20703125,36.8829992612203L79.427734375,35.05327375729878L86.6484375,34.97050297260286L93.869140625,33.07541422049205L101.08984375,29.14576542377472L108.310546875,32.02106845378876L115.53125,26.872329433759063L122.751953125,28.64105236530304L129.97265625,25.437034090360005L137.193359375,26.729247689247146L144.4140625,23.422319809595738L151.634765625,22.798133611679077L158.85546875,22.247797568639125" style="fill: none;" fill="none"></path></g><g><path stroke="rgb(51, 187, 238)" stroke-width="2px" d="M36.103515625,176.68969159022285L43.32421875,140.8532680273056L50.544921875,159.2355635712544L57.765625,33.10857645670574L64.986328125,45.8315631945928L72.20703125,19.039922674496967L79.427734375,25.613559405008946L86.6484375,15.753661115964265L93.869140625,29.087095578511565L101.08984375,15.551241358121233L108.310546875,22.358021855354316L115.53125,8.194242040316267L122.751953125,10.686075210571289L129.97265625,12.226050217946382L137.193359375,11.681012630462659L144.4140625,10.322697281837476L151.634765625,10.633371988932288" style="fill: none;" fill="none"></path></g><g><path stroke="rgb(204, 51, 17)" stroke-width="2px" d="M36.103515625,105.32510143518448L43.32421875,60.23037405808766L50.544921875,45.3594145377477L57.765625,39.197545170784004L64.986328125,34.9547013839086L72.20703125,32.44768790404002L79.427734375,29.754994034767165L86.6484375,28.541342933972686L93.869140625,25.705203930536914L101.08984375,27.0814425945282L108.310546875,23.621387004852302L115.53125,23.917279958724976L122.751953125,22.7273664077123L129.97265625,21.839898546536762L137.193359375,22.212830106417346L144.4140625,20.27026625474294L151.634765625,24.53294408321382" style="fill: none;" fill="none"></path></g><g><path stroke="rgb(255, 112, 67)" stroke-width="2px" d="M36.103515625,169.036163409551L43.32421875,173.81060046578446L50.544921875,46.960415561993926L57.765625,45.54425092538198L64.986328125,20.006023367245998L72.20703125,15.038252393404646L79.427734375,17.413367152214065L86.6484375,12.829429427782703L93.869140625,11.980363647143054L101.08984375,12.166677037874866L108.310546875,11.151811798413599L115.53125,10.525855541229255L122.751953125,9.810657819112139L129.97265625,11.331584175427759L137.193359375,10.119410077730818L144.4140625,9.646265029907227L151.634765625,9.166086634000147L158.85546875,8.69797043005625L166.076171875,9.968439261118574L173.296875,8.415253281593335L180.517578125,8.733019948005689L187.73828125,9.056624293327332L194.958984375,8.602199673652661L202.1796875,8.906532645225532L209.400390625,9.115071415901184" style="fill: none;" fill="none"></path></g><g><path stroke="rgb(187, 187, 187)" stroke-width="2px" d="M36.103515625,106.12759472926459L43.32421875,51.55675542354584L50.544921875,40.79097362359366L57.765625,38.1397296190262L64.986328125,35.43162099520365L72.20703125,31.196173946062732L79.427734375,31.542765617370613L86.6484375,30.85826845963796L93.869140625,29.046794493993133L101.08984375,28.644287705421462L108.310546875,26.818196098009746L115.53125,24.906649311383575L122.751953125,23.449034810066237L129.97265625,23.55675053596498L137.193359375,23.32957339286805L144.4140625,23.870074470837917L151.634765625,22.47543187936147L158.85546875,21.75944876670839L166.076171875,21.69957153002422L173.296875,21.833263754844673L180.517578125,22.272543231646228L187.73828125,19.64027754465739L194.958984375,20.689371744791668L202.1796875,22.02869705359141L209.400390625,21.665459791819256" style="fill: none;" fill="none"></path></g><g><path stroke="rgb(238, 51, 119)" stroke-width="2px" d="M36.103515625,162.63682476679483L43.32421875,140.3074890077114L50.544921875,48.340381900469474L57.765625,24.597943941752117L64.986328125,25.609151840209975L72.20703125,24.939565380414336L79.427734375,19.9663904507955L86.6484375,19.394016583760585L93.869140625,17.425933400789898L101.08984375,18.84516926606496L108.310546875,18.559169888496406L115.53125,16.13660347461702L122.751953125,16.116042653719585L129.97265625,16.09946739673616L137.193359375,16.0518985191981L144.4140625,14.554686268170672L151.634765625,16.016004999478664L158.85546875,16.09147282441458L166.076171875,15.875244259834297L173.296875,14.536001006762195L180.517578125,15.610274593035383L187.73828125,14.652168472607928L194.958984375,16.638409415880847L202.1796875,14.846171657244373L209.400390625,16.247636596361804" style="fill: none;" fill="none"></path></g><g><path stroke="rgb(51, 187, 238)" stroke-width="2px" d="M36.103515625,138.38998145858446L43.32421875,60.21295479933422L50.544921875,45.25475831826528L57.765625,39.438964843750014L64.986328125,37.14054874579112L72.20703125,37.04040559132894L79.427734375,33.002454956372574L86.6484375,31.306550621986396L93.869140625,29.816664775212605L101.08984375,28.46831333637239L108.310546875,29.25983460744222L115.53125,28.36389156182608L122.751953125,26.12893970807394L129.97265625,25.086667855580647L137.193359375,27.59957762559255L144.4140625,27.10138213634491L151.634765625,26.964489738146458L158.85546875,25.63842229048412L166.076171875,25.035078247388203L173.296875,24.431781093279522L180.517578125,27.134532650311787L187.73828125,26.699074625968947L194.958984375,25.29442123572031L202.1796875,26.721909562746692L209.400390625,24.114682594935108" style="fill: none;" fill="none"></path></g><g><path stroke="rgb(187, 187, 187)" stroke-width="2px" d="M36.103515625,168.83688081800938L43.32421875,139.68888846039772L50.544921875,86.26362037658691L57.765625,39.5906389951706L64.986328125,33.03991925716401L72.20703125,26.062955180803943L79.427734375,26.67917025089264L86.6484375,20.490011493364978L93.869140625,20.686921795209255L101.08984375,17.78450520833334L108.310546875,15.957065542538972L115.53125,15.107812205950427L122.751953125,13.604856053988147L129.97265625,13.957250237464912L137.193359375,13.471058328946443L144.4140625,14.425905664761865L151.634765625,14.632252375284827L158.85546875,13.315363446871448L166.076171875,12.213847359021502L173.296875,11.938902060190845L180.517578125,12.913770993550623L187.73828125,12.707647005716963L194.958984375,11.552161693573005L202.1796875,11.561633268992114L209.400390625,11.831561446189893L216.62109375,12.458244482676191L223.841796875,12.368170738220215L231.0625,11.185735980669666L238.283203125,11.362507462501538L245.50390625,11.821257591247559L252.724609375,11.255881905555725L259.9453125,11.957235654195161L267.166015625,11.356435338656116" style="fill: none;" fill="none"></path></g><g><path stroke="rgb(0, 153, 136)" stroke-width="2px" d="M36.103515625,123.92263940970103L43.32421875,57.111963351567596L50.544921875,47.00317831834157L57.765625,41.77838536103566L64.986328125,37.68229238192241L72.20703125,35.46493562062581L79.427734375,35.42316925525666L86.6484375,31.564674496650696L93.869140625,29.55637228488922L101.08984375,29.82834013303122L108.310546875,28.665082971254986L115.53125,27.45615593592326L122.751953125,26.28876082102457L129.97265625,26.631202816963203L137.193359375,25.411479592323303L144.4140625,24.30696260929109L151.634765625,23.881257494290676L158.85546875,24.36612478892008L166.076171875,23.611868540445972L173.296875,23.924805641174324L180.517578125,24.48691082000733L187.73828125,23.766660809516914L194.958984375,22.26739716529847L202.1796875,22.283245642979946L209.400390625,23.020680467287693L216.62109375,23.661359866460163L223.841796875,22.611644387245185L231.0625,21.28789794445038L238.283203125,22.24445672829947L245.50390625,24.957734862963367L252.724609375,22.221739013989772L259.9453125,20.731466333071392L267.166015625,21.621923367182422" style="fill: none;" fill="none"></path></g><g><path stroke="rgb(187, 187, 187)" stroke-width="2px" d="M36.103515625,176.09385200589895L43.32421875,171.55844035372138L50.544921875,147.94860042134923L57.765625,97.52171309789021L64.986328125,86.49248552322388L72.20703125,70.67763896783192L79.427734375,66.28843120733896L86.6484375,51.11545972029369L93.869140625,28.559981306393947L101.08984375,33.617826024691276L108.310546875,25.20134659608205L115.53125,18.065710186958313L122.751953125,13.859486699104322L129.97265625,14.628512978553772L137.193359375,10.435500462849946L144.4140625,10.115670680999763L151.634765625,9.090407808621721L158.85546875,6.858996073404944L166.076171875,8.508984367052722L173.296875,8.698040763537097L180.517578125,8.263801852862048L187.73828125,8.242162585258484L194.958984375,7.598494013150544" style="fill: none;" fill="none"></path></g><g><path stroke="rgb(0, 153, 136)" stroke-width="2px" d="M36.103515625,123.81505262851714L43.32421875,47.825095375378936L50.544921875,30.406821290651965L57.765625,24.79235740502676L64.986328125,21.55221116542817L72.20703125,18.519865194956463L79.427734375,18.51978313922882L86.6484375,17.201382040977485L93.869140625,16.841016729672756L101.08984375,15.311181465784712L108.310546875,14.598597804705298L115.53125,11.510055383046465L122.751953125,14.355548739433301L129.97265625,12.455067753791822L137.193359375,11.814927577972412L144.4140625,12.129118959108997L151.634765625,10.39839955170949L158.85546875,12.93820015589397L166.076171875,11.776677886644995L173.296875,11.025727311770117L180.517578125,11.173826177914934L187.73828125,10.535350561141975L194.958984375,10.10152192910512" style="fill: none;" fill="none"></path></g><g><path stroke="rgb(51, 187, 238)" stroke-width="2px" d="M36.103515625,168.9200062006712L43.32421875,122.7493304212888L50.544921875,55.18125069141389L57.765625,48.197511156400054L64.986328125,38.542670130729675L72.20703125,31.366509914398208L79.427734375,20.79702885945638L86.6484375,19.56328582763672L93.869140625,21.744760791460667L101.08984375,21.08342679341635L108.310546875,18.43613318602245L115.53125,17.37224551041922L122.751953125,17.619889696439106L129.97265625,15.892382184664411L137.193359375,18.044188141822815L144.4140625,17.992692311604827L151.634765625,18.802594065666213L158.85546875,14.527549266815186L166.076171875,17.35128613313039L173.296875,15.32005520661673L180.517578125,16.244108200073256L187.73828125,16.836515386899322L194.958984375,15.232958912849433" style="fill: none;" fill="none"></path></g><g><path stroke="rgb(204, 51, 17)" stroke-width="2px" d="M36.103515625,138.1068188647429L43.32421875,77.50114711125693L50.544921875,60.86396149794261L57.765625,52.98922570546469L64.986328125,47.32877544562022L72.20703125,44.79242118199666L79.427734375,42.38698097070059L86.6484375,39.50984927018484L93.869140625,37.08151551087697L101.08984375,39.137867212295546L108.310546875,38.691988110542304L115.53125,35.82974366346996L122.751953125,36.82531408468883L129.97265625,33.45383179187776L137.193359375,34.01231479644776L144.4140625,33.37519896030427L151.634765625,33.42377595106761L158.85546875,35.80002776781718L166.076171875,34.30881730715434L173.296875,33.11454308032991L180.517578125,32.8719277381897L187.73828125,33.45256578922273L194.958984375,33.548805435498565" style="fill: none;" fill="none"></path></g><g><path stroke="rgb(255, 112, 67)" stroke-width="2px" d="M36.103515625,168.2063081935048L43.32421875,167.59558426340422L50.544921875,167.04563798507056L57.765625,166.65812688072523L64.986328125,167.49631734689075L72.20703125,167.41134277979532L79.427734375,157.5526826530695L86.6484375,144.23794663945836L93.869140625,139.59256675839424L101.08984375,133.5028448899587L108.310546875,131.6409623324871L115.53125,127.23579766352971L122.751953125,124.3875085512797L129.97265625,124.05521215995152L137.193359375,119.13621745506923L144.4140625,115.79228830337523L151.634765625,107.22743453582129L158.85546875,106.48834101359049L166.076171875,96.6248264114062L173.296875,88.0794491569201L180.517578125,86.00515069564185L187.73828125,84.64682362476985L194.958984375,80.63089909156163L202.1796875,80.88181964556377L209.400390625,74.32195655504862L216.62109375,77.01902282238007L223.841796875,74.69856890042622L231.0625,75.34644575913747L238.283203125,74.67811357975006L245.50390625,74.71948138872781" style="fill: none;" fill="none"></path></g><g><path stroke="rgb(187, 187, 187)" stroke-width="2px" d="M36.103515625,165.25740044315657L43.32421875,156.37669806182384L50.544921875,152.2638114988804L57.765625,147.77321216464043L64.986328125,146.05956620971364L72.20703125,143.81509589155516L79.427734375,142.36946445703506L86.6484375,142.9897617995739L93.869140625,140.53432327508926L101.08984375,141.1476253668467L108.310546875,138.8107046186924L115.53125,139.2712218761444L122.751953125,138.6421269873778L129.97265625,135.71553033590317L137.193359375,137.04102339347205L144.4140625,134.8738466401895L151.634765625,134.42896392941475L158.85546875,131.8647048572699L166.076171875,130.42255199948946L173.296875,129.15426057577133L180.517578125,126.96745198965071L187.73828125,124.0167338848114L194.958984375,123.62936637798946L202.1796875,122.43188025554021L209.400390625,118.60556892553964L216.62109375,117.27805378039677L223.841796875,116.52345758676528L231.0625,116.29996122916539L238.283203125,116.3846486012141L245.50390625,117.63914000988007" style="fill: none;" fill="none"></path></g><g><path stroke="rgb(238, 51, 119)" stroke-width="2px" d="M36.103515625,168.9230766966939L43.32421875,150.2734179496765L50.544921875,156.02737657229105L57.765625,143.6608838737011L64.986328125,131.0708391368389L72.20703125,129.48827720681828L79.427734375,84.79534449179968L86.6484375,36.1120857000351L93.869140625,28.885390877723694L101.08984375,24.091507712999974L108.310546875,23.325294772783916L115.53125,27.15753169854482L122.751953125,27.907134215037022L129.97265625,19.873503367106114L137.193359375,21.87004816532135L144.4140625,19.04554935296377L151.634765625,20.57786973317465L158.85546875,19.23029196262361L166.076171875,23.208517750104278L173.296875,22.1602323849996L180.517578125,21.029656847318012" style="fill: none;" fill="none"></path></g><g><path stroke="rgb(51, 187, 238)" stroke-width="2px" d="M36.103515625,158.4837015916904L43.32421875,108.51796013116837L50.544921875,72.05530774593353L57.765625,61.28915083408356L64.986328125,55.26198180516561L72.20703125,52.88075975577037L79.427734375,49.05317656199137L86.6484375,47.930536985397346L93.869140625,47.10484536488852L101.08984375,47.31802614529928L108.310546875,45.37643524010977L115.53125,46.091410239537566L122.751953125,43.611486872037254L129.97265625,38.93073511123658L137.193359375,39.48981595039369L144.4140625,38.778017679850265L151.634765625,38.391617258389786L158.85546875,36.59011892477671L166.076171875,36.08663670221966L173.296875,34.68995443979899L180.517578125,37.51842709382375" style="fill: none;" fill="none"></path></g></g></g></g></g></g><g transform="translate(41, 177)" clip-path="url(#clip_1)"><clipPath id="clip_1"><rect width="288" height="23"></rect></clipPath><g><g><line x1="0" y1="0" x2="0" y2="5" style="visibility: inherit;" fill="rgb(0, 0, 0)" stroke="rgb(204, 204, 204)" stroke-width="1px"></line><line x1="36.103515625" y1="0" x2="36.103515625" y2="5" style="visibility: inherit;" fill="rgb(0, 0, 0)" stroke="rgb(204, 204, 204)" stroke-width="1px"></line><line x1="72.20703125" y1="0" x2="72.20703125" y2="5" style="visibility: inherit;" fill="rgb(0, 0, 0)" stroke="rgb(204, 204, 204)" stroke-width="1px"></line><line x1="108.310546875" y1="0" x2="108.310546875" y2="5" style="visibility: inherit;" fill="rgb(0, 0, 0)" stroke="rgb(204, 204, 204)" stroke-width="1px"></line><line x1="144.4140625" y1="0" x2="144.4140625" y2="5" style="visibility: inherit;" fill="rgb(0, 0, 0)" stroke="rgb(204, 204, 204)" stroke-width="1px"></line><line x1="180.517578125" y1="0" x2="180.517578125" y2="5" style="visibility: inherit;" fill="rgb(0, 0, 0)" stroke="rgb(204, 204, 204)" stroke-width="1px"></line><line x1="216.62109375" y1="0" x2="216.62109375" y2="5" style="visibility: inherit;" fill="rgb(0, 0, 0)" stroke="rgb(204, 204, 204)" stroke-width="1px"></line><line x1="252.724609375" y1="0" x2="252.724609375" y2="5" style="visibility: inherit;" fill="rgb(0, 0, 0)" stroke="rgb(204, 204, 204)" stroke-width="1px"></line><line x1="288.828125" y1="0" x2="288.828125" y2="5" style="visibility: inherit;" fill="rgb(0, 0, 0)" stroke="rgb(204, 204, 204)" stroke-width="1px"></line></g><g transform="translate(0, 8)"><text x="0" y="0" dx="0em" dy="0.95em" style="text-anchor: middle; visibility: hidden; font-family: Roboto, sans-serif; font-size: 12px; font-weight: 200;" fill="rgb(255, 255, 255)" stroke="none" stroke-width="1px">-5</text><text x="36.103515625" y="0" dx="0em" dy="0.95em" style="text-anchor: middle; visibility: inherit; font-family: Roboto, sans-serif; font-size: 12px; font-weight: 200;" fill="rgb(255, 255, 255)" stroke="none" stroke-width="1px">0</text><text x="72.20703125" y="0" dx="0em" dy="0.95em" style="text-anchor: middle; visibility: inherit; font-family: Roboto, sans-serif; font-size: 12px; font-weight: 200;" fill="rgb(255, 255, 255)" stroke="none" stroke-width="1px">5</text><text x="108.310546875" y="0" dx="0em" dy="0.95em" style="text-anchor: middle; visibility: inherit; font-family: Roboto, sans-serif; font-size: 12px; font-weight: 200;" fill="rgb(255, 255, 255)" stroke="none" stroke-width="1px">10</text><text x="144.4140625" y="0" dx="0em" dy="0.95em" style="text-anchor: middle; visibility: inherit; font-family: Roboto, sans-serif; font-size: 12px; font-weight: 200;" fill="rgb(255, 255, 255)" stroke="none" stroke-width="1px">15</text><text x="180.517578125" y="0" dx="0em" dy="0.95em" style="text-anchor: middle; visibility: inherit; font-family: Roboto, sans-serif; font-size: 12px; font-weight: 200;" fill="rgb(255, 255, 255)" stroke="none" stroke-width="1px">20</text><text x="216.62109375" y="0" dx="0em" dy="0.95em" style="text-anchor: middle; visibility: inherit; font-family: Roboto, sans-serif; font-size: 12px; font-weight: 200;" fill="rgb(255, 255, 255)" stroke="none" stroke-width="1px">25</text><text x="252.724609375" y="0" dx="0em" dy="0.95em" style="text-anchor: middle; visibility: inherit; font-family: Roboto, sans-serif; font-size: 12px; font-weight: 200;" fill="rgb(255, 255, 255)" stroke="none" stroke-width="1px">30</text><text x="288.828125" y="0" dx="0em" dy="0.95em" style="text-anchor: middle; visibility: hidden; font-family: Roboto, sans-serif; font-size: 12px; font-weight: 200;" fill="rgb(255, 255, 255)" stroke="none" stroke-width="1px">35</text></g><line x1="0" y1="0" x2="288.828125" y2="0" fill="rgb(0, 0, 0)" stroke="rgb(204, 204, 204)" stroke-width="1px"></line></g></g></g></g></svg>