<svg viewBox="0 0 330 200" xmlns="http://www.w3.org/2000/svg"><g><g><g><g><g><line x1="51.5625" y1="177" x2="46.5625" y2="177" style="visibility: inherit;" fill="rgb(0, 0, 0)" stroke="rgb(204, 204, 204)" stroke-width="1px"></line><line x1="51.5625" y1="151.71428571428572" x2="46.5625" y2="151.71428571428572" style="visibility: inherit;" fill="rgb(0, 0, 0)" stroke="rgb(204, 204, 204)" stroke-width="1px"></line><line x1="51.5625" y1="126.42857142857143" x2="46.5625" y2="126.42857142857143" style="visibility: inherit;" fill="rgb(0, 0, 0)" stroke="rgb(204, 204, 204)" stroke-width="1px"></line><line x1="51.5625" y1="101.14285714285714" x2="46.5625" y2="101.14285714285714" style="visibility: inherit;" fill="rgb(0, 0, 0)" stroke="rgb(204, 204, 204)" stroke-width="1px"></line><line x1="51.5625" y1="75.85714285714286" x2="46.5625" y2="75.85714285714286" style="visibility: inherit;" fill="rgb(0, 0, 0)" stroke="rgb(204, 204, 204)" stroke-width="1px"></line><line x1="51.5625" y1="50.57142857142857" x2="46.5625" y2="50.57142857142857" style="visibility: inherit;" fill="rgb(0, 0, 0)" stroke="rgb(204, 204, 204)" stroke-width="1px"></line><line x1="51.5625" y1="25.285714285714295" x2="46.5625" y2="25.285714285714295" style="visibility: inherit;" fill="rgb(0, 0, 0)" stroke="rgb(204, 204, 204)" stroke-width="1px"></line><line x1="51.5625" y1="0" x2="46.5625" y2="0" style="visibility: inherit;" fill="rgb(0, 0, 0)" stroke="rgb(204, 204, 204)" stroke-width="1px"></line></g><g transform="translate(41.5625, 0)"><text x="0" y="177" dx="0em" dy="0.3em" style="text-anchor: end; visibility: hidden; font-family: Roboto, sans-serif; font-size: 12px; font-weight: 200;" fill="rgb(255, 255, 255)" stroke="none" stroke-width="1px">-0.5</text><text x="0" y="151.71428571428572" dx="0em" dy="0.3em" style="text-anchor: end; visibility: inherit; font-family: Roboto, sans-serif; font-size: 12px; font-weight: 200;" fill="rgb(255, 255, 255)" stroke="none" stroke-width="1px">0</text><text x="0" y="126.42857142857143" dx="0em" dy="0.3em" style="text-anchor: end; visibility: inherit; font-family: Roboto, sans-serif; font-size: 12px; font-weight: 200;" fill="rgb(255, 255, 255)" stroke="none" stroke-width="1px">0.5</text><text x="0" y="101.14285714285714" dx="0em" dy="0.3em" style="text-anchor: end; visibility: inherit; font-family: Roboto, sans-serif; font-size: 12px; font-weight: 200;" fill="rgb(255, 255, 255)" stroke="none" stroke-width="1px">1</text><text x="0" y="75.85714285714286" dx="0em" dy="0.3em" style="text-anchor: end; visibility: inherit; font-family: Roboto, sans-serif; font-size: 12px; font-weight: 200;" fill="rgb(255, 255, 255)" stroke="none" stroke-width="1px">1.5</text><text x="0" y="50.57142857142857" dx="0em" dy="0.3em" style="text-anchor: end; visibility: inherit; font-family: Roboto, sans-serif; font-size: 12px; font-weight: 200;" fill="rgb(255, 255, 255)" stroke="none" stroke-width="1px">2</text><text x="0" y="25.285714285714295" dx="0em" dy="0.3em" style="text-anchor: end; visibility: inherit; font-family: Roboto, sans-serif; font-size: 12px; font-weight: 200;" fill="rgb(255, 255, 255)" stroke="none" stroke-width="1px">2.5</text><text x="0" y="0" dx="0em" dy="0.3em" style="text-anchor: end; visibility: hidden; font-family: Roboto, sans-serif; font-size: 12px; font-weight: 200;" fill="rgb(255, 255, 255)" stroke="none" stroke-width="1px">3</text></g><line x1="51.5625" y1="0" x2="51.5625" y2="177" fill="rgb(0, 0, 0)" stroke="rgb(204, 204, 204)" stroke-width="1px"></line></g></g><g transform="translate(51, 0)" clip-path="url(#clip_0)"><clipPath id="clip_0"><rect width="278" height="177"></rect></clipPath><g><g><g><line x1="0" y1="0" x2="0" y2="177" fill="rgb(0, 0, 0)" stroke="rgb(189, 189, 189)" stroke-width="1px" opacity="0.25"></line><line x1="34.8046875" y1="0" x2="34.8046875" y2="177" fill="rgb(0, 0, 0)" stroke="rgb(189, 189, 189)" stroke-width="1px" opacity="0.25"></line><line x1="69.609375" y1="0" x2="69.609375" y2="177" fill="rgb(0, 0, 0)" stroke="rgb(189, 189, 189)" stroke-width="1px" opacity="0.25"></line><line x1="104.4140625" y1="0" x2="104.4140625" y2="177" fill="rgb(0, 0, 0)" stroke="rgb(189, 189, 189)" stroke-width="1px" opacity="0.25"></line><line x1="139.21875" y1="0" x2="139.21875" y2="177" fill="rgb(0, 0, 0)" stroke="rgb(189, 189, 189)" stroke-width="1px" opacity="0.25"></line><line x1="174.0234375" y1="0" x2="174.0234375" y2="177" fill="rgb(0, 0, 0)" stroke="rgb(189, 189, 189)" stroke-width="1px" opacity="0.25"></line><line x1="208.828125" y1="0" x2="208.828125" y2="177" fill="rgb(0, 0, 0)" stroke="rgb(189, 189, 189)" stroke-width="1px" opacity="0.25"></line><line x1="243.6328125" y1="0" x2="243.6328125" y2="177" fill="rgb(0, 0, 0)" stroke="rgb(189, 189, 189)" stroke-width="1px" opacity="0.25"></line><line x1="278.4375" y1="0" x2="278.4375" y2="177" fill="rgb(0, 0, 0)" stroke="rgb(189, 189, 189)" stroke-width="1px" opacity="0.25"></line></g><g><line x1="0" y1="177" x2="278.4375" y2="177" fill="rgb(0, 0, 0)" stroke="rgb(189, 189, 189)" stroke-width="1px" opacity="0.25"></line><line x1="0" y1="151.71428571428572" x2="278.4375" y2="151.71428571428572" fill="rgb(0, 0, 0)" stroke="rgb(189, 189, 189)" stroke-width="1px" opacity="0.25"></line><line x1="0" y1="126.42857142857143" x2="278.4375" y2="126.42857142857143" fill="rgb(0, 0, 0)" stroke="rgb(189, 189, 189)" stroke-width="1px" opacity="0.25"></line><line x1="0" y1="101.14285714285714" x2="278.4375" y2="101.14285714285714" fill="rgb(0, 0, 0)" stroke="rgb(189, 189, 189)" stroke-width="1px" opacity="0.25"></line><line x1="0" y1="75.85714285714286" x2="278.4375" y2="75.85714285714286" fill="rgb(0, 0, 0)" stroke="rgb(189, 189, 189)" stroke-width="1px" opacity="0.25"></line><line x1="0" y1="50.57142857142857" x2="278.4375" y2="50.57142857142857" fill="rgb(0, 0, 0)" stroke="rgb(189, 189, 189)" stroke-width="1px" opacity="0.25"></line><line x1="0" y1="25.285714285714295" x2="278.4375" y2="25.285714285714295" fill="rgb(0, 0, 0)" stroke="rgb(189, 189, 189)" stroke-width="1px" opacity="0.25"></line><line x1="0" y1="0" x2="278.4375" y2="0" fill="rgb(0, 0, 0)" stroke="rgb(189, 189, 189)" stroke-width="1px" opacity="0.25"></line></g></g></g><g><g><line x1="0" y1="151.71428571428572" x2="278.4375" y2="151.71428571428572" fill="rgb(0, 0, 0)" stroke="rgb(153, 153, 153)" stroke-width="1.5px"></line></g></g><g><g><line x1="34.8046875" y1="0" x2="34.8046875" y2="177" fill="rgb(0, 0, 0)" stroke="rgb(153, 153, 153)" stroke-width="1.5px"></line></g></g><g><g><g><g><g><path stroke="rgb(0, 153, 136)" stroke-width="2px" d="M41.765625,-35.03883963848069L48.7265625,1.3420729779341714L55.6875,89.95567701112202L62.6484375,117.92196259746301L69.609375,130.65430532191615L76.5703125,134.56483338969497L83.53125,136.37268719907644L90.4921875,137.0760410238813L97.453125,139.25867632092115L104.4140625,140.6348484377813L111.375,139.75750707570762L118.3359375,141.64526170853875L125.296875,142.47799825206468L132.2578125,143.02275820611632L139.21875,143.3314053367916L146.1796875,143.3260973070295L153.140625,143.74446490927178L160.1015625,144.07244938940258L167.0625,143.87720812042804L174.0234375,143.729506542224L180.984375,143.80276486683778L187.9453125,143.82768570424602L194.90625,143.8643177499108" style="fill: none;" fill="none"></path></g><g><path stroke="rgb(238, 51, 119)" stroke-width="2px" d="M34.8046875,49.59998253413609L41.765625,103.61629234817397L48.7265625,121.66171610406755L55.6875,127.93412759095517L62.6484375,131.4532760726091L69.609375,133.7393064492677L76.5703125,134.93322372964698L83.53125,135.72600179278942L90.4921875,135.95740337720662L97.453125,137.17398885115657L104.4140625,137.28531056599198L111.375,137.4790738878582L118.3359375,137.57229282758675L125.296875,138.43849150687038L132.2578125,138.34837535855974L139.21875,138.68839141452614L146.1796875,139.189557824437L153.140625,139.06013383633555L160.1015625,139.94939960923028L167.0625,140.02594180109512L174.0234375,139.367876620483L180.984375,139.69212626240372L187.9453125,139.60040127456372L194.90625,140.21918534749005" style="fill: none;" fill="none"></path></g><g><path stroke="rgb(255, 112, 67)" stroke-width="2px" d="M41.765625,-147.80779087362887L48.7265625,9.31408295758256L55.6875,96.9833914194471L62.6484375,123.4636434081823L69.609375,136.58276184313354L76.5703125,139.79988545653015L83.53125,141.7418691160154L90.4921875,142.6316023658321L97.453125,143.32563790713016L104.4140625,144.089574341311L111.375,144.23431963003756L118.3359375,143.61167796967808L125.296875,143.62982494463944L132.2578125,143.34547610163304L139.21875,143.5823752849727" style="fill: none;" fill="none"></path></g><g><path stroke="rgb(187, 187, 187)" stroke-width="2px" d="M34.8046875,82.82461258343288L41.765625,115.07010463835641L48.7265625,129.3076636693647L55.6875,134.79401819063239L62.6484375,136.5714506405802L69.609375,138.15242257844162L76.5703125,138.83850908003086L83.53125,138.70420822655743L90.4921875,139.08865835076196L97.453125,140.09942569672597L104.4140625,140.5404471410289L111.375,140.90098326105797L118.3359375,141.37047770319896L125.296875,141.08470205704918L132.2578125,141.62231806944328L139.21875,141.6377139377291" style="fill: none;" fill="none"></path></g><g><path stroke="rgb(238, 51, 119)" stroke-width="2px" d="M34.8046875,139.37254428863525L41.765625,135.99502059107957L48.7265625,139.24865712173414L55.6875,142.61187918863067L62.6484375,146.0792058644085L69.609375,147.2547534696637L76.5703125,147.82122821637262L83.53125,148.1073791041301L90.4921875,148.28907637463507L97.453125,147.54527294393998L104.4140625,148.14464630149942L111.375,148.35835555300537L118.3359375,147.64387774517996L125.296875,148.12495992262942L132.2578125,148.20019630710203L139.21875,148.5667959520885L146.1796875,148.66314311487193L153.140625,148.67950067625162L160.1015625,148.6947151969399L167.0625,148.7315312966966L174.0234375,148.7166657101813L180.984375,148.7231778501468L187.9453125,148.7801167933935L194.90625,148.78546020300672L201.8671875,148.7856342512619L208.828125,148.78656790989217L215.7890625,148.78689347103574L222.75,148.75480657619167" style="fill: none;" fill="none"></path></g><g><path stroke="rgb(51, 187, 238)" stroke-width="2px" d="M34.8046875,131.3068413734436L41.765625,140.4810457805661L48.7265625,144.062828906196L55.6875,145.38212718015492L62.6484375,145.90317240764568L69.609375,146.33562662460383L76.5703125,146.3233461192038L83.53125,146.5458946914065L90.4921875,146.890346341412L97.453125,146.89824890184155L104.4140625,147.02568787276718L111.375,147.1441048455916L118.3359375,147.0339065454262L125.296875,147.06812355916918L132.2578125,147.0244624676748L139.21875,147.0630079694875L146.1796875,147.301959773881L153.140625,147.19266964857826L160.1015625,147.3618579776513L167.0625,147.40088218871415L174.0234375,147.30525501184096L180.984375,147.42376795252147L187.9453125,147.52125722735937L194.90625,147.5529643165468L201.8671875,147.45574086375248L208.828125,147.47270727220226L215.7890625,147.57621381072556L222.75,147.39200567000628" style="fill: none;" fill="none"></path></g><g><path style="fill: none;" fill="none" stroke="none" stroke-width="1px"></path></g><g><path stroke="rgb(255, 112, 67)" stroke-width="2px" d="M34.8046875,49.19682700293404L41.765625,97.90822198834834" style="fill: none;" fill="none"></path></g><g><path stroke="rgb(0, 153, 136)" stroke-width="2px" d="M41.765625,-9.432957216700974L48.7265625,77.77761925763778L55.6875,109.57167434623894L62.6484375,78.16309871462427L69.609375,121.65494422362063L76.5703125,136.2373111327029L83.53125,140.8080016409739L90.4921875,142.5671060948535L97.453125,143.40615683391198L104.4140625,144.06368008957068L111.375,143.95231917497492L118.3359375,144.230508712999L125.296875,144.56576111568276L132.2578125,144.51962297359256L139.21875,144.04372461686157L146.1796875,144.51711712799542L153.140625,144.57252260463358L160.1015625,144.63215488910186L167.0625,144.53570993306045L174.0234375,144.7083044633011L180.984375,144.65311771343346L187.9453125,144.6073700749891L194.90625,144.7111999673494L201.8671875,144.69191511172798L208.828125,144.7299308526137" style="fill: none;" fill="none"></path></g><g><path stroke="rgb(238, 51, 119)" stroke-width="2px" d="M34.8046875,100.94756719044277L41.765625,126.82246194952278L48.7265625,134.51526782023245L55.6875,136.38642307252906L62.6484375,137.89972693383643L69.609375,138.88402399388994L76.5703125,139.786447386935L83.53125,139.81790623416143L90.4921875,140.98871052846488L97.453125,141.24311066576985L104.4140625,141.24001917504964L111.375,141.21900125722772L118.3359375,141.49063806261566L125.296875,141.3668405831696L132.2578125,141.82051700536408L139.21875,141.83279548157094L146.1796875,142.25279051899264L153.140625,142.35653713605828L160.1015625,142.21826718405435L167.0625,142.22547859860782L174.0234375,142.47981932768172L180.984375,142.56522739068828L187.9453125,142.54647567210765L194.90625,142.3952498867955L201.8671875,142.70150057590848L208.828125,142.3544440333606" style="fill: none;" fill="none"></path></g><g><path stroke="rgb(255, 112, 67)" stroke-width="2px" d="M48.7265625,-6.28384143103904L55.6875,8.76521503942564L62.6484375,64.09714418640881L69.609375,101.01928161698856L76.5703125,120.59835537038681L83.53125,133.77526938017724L90.4921875,138.0325908577474L97.453125,140.00026913473314L104.4140625,141.0017115508754L111.375,141.6924189467967L118.3359375,142.17414287863826L125.296875,142.55719442251106L132.2578125,142.53707628469064L139.21875,142.1467271358912L146.1796875,142.19221417455063L153.140625,142.4139444251124L160.1015625,142.517139317905" style="fill: none;" fill="none"></path></g><g><path stroke="rgb(187, 187, 187)" stroke-width="2px" d="M34.8046875,36.51966721670968L41.765625,96.99525205156053L48.7265625,119.50642849462989L55.6875,127.70828670817428L62.6484375,131.2711701297006L69.609375,133.04028224644395L76.5703125,134.2013650147748L83.53125,135.06537690174224L90.4921875,135.51523278621386L97.453125,135.20159068126185L104.4140625,135.72336604454313L111.375,135.99299325249794L118.3359375,136.51426524515074L125.296875,136.6691674925421L132.2578125,137.11628667736176L139.21875,136.68712898996392L146.1796875,137.04126687299916L153.140625,137.48626143061327L160.1015625,137.98737263656585" style="fill: none;" fill="none"></path></g><g><path stroke="rgb(255, 112, 67)" stroke-width="2px" d="M62.6484375,-9.534659313748648L69.609375,87.12492334139485L76.5703125,123.2279801739983L83.53125,135.39705408892308L90.4921875,138.74637364137658L97.453125,140.35384354527596L104.4140625,140.98515810552232L111.375,140.61293233214067L118.3359375,140.91573530783091L125.296875,141.57341475760467L132.2578125,142.23659889133515L139.21875,142.3005961398777L146.1796875,142.14023168218893L153.140625,142.2490337619474L160.1015625,142.58280802281456L167.0625,142.46977299626747L174.0234375,142.77186825140146L180.984375,142.4883315072359L187.9453125,142.59268974964786L194.90625,142.60044680610326L201.8671875,142.53840714840928L208.828125,142.51633589436244" style="fill: none;" fill="none"></path></g><g><path stroke="rgb(187, 187, 187)" stroke-width="2px" d="M34.8046875,59.474290813718525L41.765625,106.31537560361923L48.7265625,125.84403716276923L55.6875,132.80752708953116L62.6484375,135.32964307093408L69.609375,136.95767424186536L76.5703125,137.49665290790824L83.53125,137.94342944138904L90.4921875,138.4455741849337L97.453125,138.33024648650525L104.4140625,138.50318186087597L111.375,138.4233110846672L118.3359375,138.9906310083759L125.296875,139.17132335331814L132.2578125,139.7521735350514L139.21875,139.72058225998185L146.1796875,139.67412348820343L153.140625,139.5706860052137L160.1015625,139.56790714498655L167.0625,139.6228185955805L174.0234375,139.67987206289803L180.984375,139.91590809883417L187.9453125,140.1538076280242L194.90625,140.07127582301936L201.8671875,140.07863246484374L208.828125,140.22930310315047" style="fill: none;" fill="none"></path></g><g><path stroke="rgb(238, 51, 119)" stroke-width="2px" d="M34.8046875,-10.73431594031201L41.765625,6.285745519645129L48.7265625,54.77910628121878L55.6875,81.1374778905845L62.6484375,115.04845836630717L69.609375,129.6161835358335L76.5703125,136.97003322959523L83.53125,139.57464433136002L90.4921875,139.28297545715526L97.453125,141.50205408107027L104.4140625,142.69213982258782L111.375,143.04299558761568L118.3359375,143.4388451493151L125.296875,142.8682472404005L132.2578125,143.5057573130032L139.21875,143.45230878461967L146.1796875,143.08046757457777L153.140625,143.41502296923204L160.1015625,143.1388472886122L167.0625,143.2895288483797" style="fill: none;" fill="none"></path></g><g><path stroke="rgb(51, 187, 238)" stroke-width="2px" d="M34.8046875,82.75516932351249L41.765625,113.12308420550072L48.7265625,125.09490201433002L55.6875,130.41061228420682L62.6484375,133.26099193958132L69.609375,134.30231690511712L76.5703125,134.87549693137316L83.53125,135.81670798484953L90.4921875,135.7217637953938L97.453125,136.61535206884716L104.4140625,135.94793064327956L111.375,136.83386358676302L118.3359375,137.71875597691573L125.296875,137.41368157143108L132.2578125,137.02520790697093L139.21875,137.8451419139374L146.1796875,138.00578091347418L153.140625,138.3066218933731L160.1015625,138.04232992648093L167.0625,138.0342205056395" style="fill: none;" fill="none"></path></g><g><path stroke="rgb(187, 187, 187)" stroke-width="2px" d="M34.8046875,7.739013944353373L41.765625,-35.11627224984359L48.7265625,27.358458197102525L55.6875,36.80525764587846L62.6484375,74.25664873227984L69.609375,104.75805721527485L76.5703125,119.26859005294298L83.53125,131.9168618356459L90.4921875,138.374487591643L97.453125,141.29577846757908L104.4140625,140.1579746238811L111.375,142.24236899580248L118.3359375,143.2801944007274L125.296875,143.21507209646973L132.2578125,143.29018893513293L139.21875,143.2633015378706L146.1796875,143.0991103255713L153.140625,142.87671776781994" style="fill: none;" fill="none"></path></g><g><path stroke="rgb(0, 153, 136)" stroke-width="2px" d="M34.8046875,62.323062045233584L41.765625,108.30504045482704L48.7265625,123.15716714787565L55.6875,129.21298894845117L62.6484375,132.74570098433827L69.609375,134.02689018703006L76.5703125,134.8592524488554L83.53125,135.10110168011815L90.4921875,135.66946172491802L97.453125,136.81942870641123L104.4140625,136.3842914950868L111.375,137.58196299951163L118.3359375,137.4405064726312L125.296875,138.20156224350106L132.2578125,138.0858450911261L139.21875,138.86740584214638L146.1796875,139.24559570515427L153.140625,139.45161500397356" style="fill: none;" fill="none"></path></g><g><path stroke="rgb(51, 187, 238)" stroke-width="2px" d="M34.8046875,-176.05855219704767L41.765625,13.925938411909943L48.7265625,25.88371226544878L55.6875,106.31803805879366L62.6484375,124.45299038040729L69.609375,136.21736642838366L76.5703125,137.86258803614876L83.53125,140.63147825582442L90.4921875,138.2125893306042L97.453125,140.7713532055331L104.4140625,139.87963898826658L111.375,142.86646753212398L118.3359375,143.1349785461106L125.296875,142.8657113031714L132.2578125,142.91279684529798L139.21875,143.22823782459392L146.1796875,143.24480889230983" style="fill: none;" fill="none"></path></g><g><path stroke="rgb(204, 51, 17)" stroke-width="2px" d="M34.8046875,90.73245099612645L41.765625,117.73305596586644L48.7265625,127.81429276131456L55.6875,132.0751104306882L62.6484375,134.3351481123281L69.609375,135.61193051447248L76.5703125,136.61850682630063L83.53125,137.1981426286469L90.4921875,138.08714778639498L97.453125,137.94975379386327L104.4140625,138.77899627061063L111.375,138.95106262761942L118.3359375,139.2711579206214L125.296875,139.57183961321533L132.2578125,139.55438016301696L139.21875,140.0313673358387L146.1796875,139.0934458636146" style="fill: none;" fill="none"></path></g><g><path stroke="rgb(255, 112, 67)" stroke-width="2px" d="M41.765625,-38.043772280918546L48.7265625,90.19777673779399L55.6875,123.09855182355905L62.6484375,137.29077452569527L69.609375,142.09326130722923L76.5703125,142.96462556676033L83.53125,144.0316585202676L90.4921875,144.49058670694257L97.453125,144.57355687167L104.4140625,144.77754302067018L111.375,144.9372756113503L118.3359375,145.11021077555344L125.296875,144.87588264637026L132.2578125,145.04659308531433L139.21875,145.16554852498706L146.1796875,145.2772486938115L153.140625,145.39758765120038L160.1015625,145.19908415457533L167.0625,145.41143670796077L174.0234375,145.42906874651197L180.984375,145.36715308847752L187.9453125,145.42207594440654L194.90625,145.39012509908267L201.8671875,145.3448523193285" style="fill: none;" fill="none"></path></g><g><path stroke="rgb(187, 187, 187)" stroke-width="2px" d="M34.8046875,99.87692683083671L41.765625,126.24964624520918L48.7265625,134.22745092368226L55.6875,136.79238967302484L62.6484375,138.06246918083752L69.609375,139.27185339690345L76.5703125,139.52158724015118L83.53125,139.72573211899154L90.4921875,140.14611045217748L97.453125,140.3098399285199L104.4140625,140.72404581038472L111.375,141.22056181285325L118.3359375,141.6380253094846L125.296875,141.71337504975776L132.2578125,141.78694375494655L139.21875,141.6565479777316L146.1796875,141.92807766547585L153.140625,142.1441838048179L160.1015625,142.209392276678L167.0625,142.18965896056932L174.0234375,142.10420110258158L180.984375,142.57821590377037L187.9453125,142.52150661761758L194.90625,142.2423656659581L201.8671875,142.23568478297818" style="fill: none;" fill="none"></path></g><g><path stroke="rgb(238, 51, 119)" stroke-width="2px" d="M34.8046875,107.27730315072196L41.765625,110.99381630905762L48.7265625,135.23532140808285L55.6875,143.84433382687246L62.6484375,146.1731394269936L69.609375,146.81456878133991L76.5703125,147.38006721629137L83.53125,147.61817076808336L90.4921875,147.81532188392563L97.453125,147.67793349623335L104.4140625,147.65523070530045L111.375,147.876614805586L118.3359375,147.9020846130386L125.296875,147.91013794732L132.2578125,147.90954522406656L139.21875,148.05106282062093L146.1796875,147.95979041104903L153.140625,147.90965808457767L160.1015625,147.90525551057902L167.0625,148.02985338178624L174.0234375,147.95793076671558L180.984375,148.04072585867212L187.9453125,147.88650015618535L194.90625,148.00174795099815L201.8671875,147.89526559212828" style="fill: none;" fill="none"></path></g><g><path stroke="rgb(51, 187, 238)" stroke-width="2px" d="M34.8046875,120.10524988174438L41.765625,137.1735619170245L48.7265625,142.3185304692667L55.6875,144.20434109545457L62.6484375,144.95434845342118L69.609375,145.15037169613322L76.5703125,145.59313871115984L83.53125,145.90594635705705L90.4921875,146.12773212486098L97.453125,146.33370383660792L104.4140625,146.28410342729313L111.375,146.36182300946692L118.3359375,146.60642913818535L125.296875,146.77453101148777L132.2578125,146.54547893901238L139.21875,146.54571078604707L146.1796875,146.5441477947531L153.140625,146.6959386300839L160.1015625,146.78742669141064L167.0625,146.8647440157824L174.0234375,146.61664455030177L180.984375,146.58279092079977L187.9453125,146.73037928849126L194.90625,146.62292080399885L201.8671875,146.85665090926955" style="fill: none;" fill="none"></path></g><g><path stroke="rgb(187, 187, 187)" stroke-width="2px" d="M34.8046875,-84.64626380375452L41.765625,43.80811569867557L48.7265625,101.25963304529014L55.6875,127.79932900373488L62.6484375,136.20670528744384L69.609375,139.91407804946948L76.5703125,140.7756912195566L83.53125,142.08010832428872L90.4921875,142.37636080161252L97.453125,143.04856592235046L104.4140625,143.51170464306674L111.375,143.7976125798761L118.3359375,144.12402334659862L125.296875,144.16674338186783L132.2578125,144.2378408391868L139.21875,144.07285207206067L146.1796875,144.00414257557867L153.140625,144.21088990292373L160.1015625,144.44842622710817L167.0625,144.5686385719415L174.0234375,144.42151271816363L180.984375,144.4243117585006L187.9453125,144.6287568602673L194.90625,144.67695364817953L201.8671875,144.64077167060202L208.828125,144.51033246142754L215.7890625,144.50400555818808L222.75,144.70995911252172L229.7109375,144.72073116289204L236.671875,144.65844958284617L243.6328125,144.747489732138L250.59375,144.62847474029635L257.5546875,144.70969653425297" style="fill: none;" fill="none"></path></g><g><path stroke="rgb(0, 153, 136)" stroke-width="2px" d="M34.8046875,88.1642621244703L41.765625,122.30993380686769L48.7265625,131.68565061997086L55.6875,135.28352689637046L62.6484375,137.1411007772118L69.609375,138.08158508481685L76.5703125,138.36189757144965L83.53125,139.22858288449555L90.4921875,139.87563436038596L97.453125,139.98623995765348L104.4140625,140.2411085785981L111.375,140.55315836923162L118.3359375,140.86577917515734L125.296875,140.88258397818956L132.2578125,141.12831775824938L139.21875,141.36738667819188L146.1796875,141.53888999968757L153.140625,141.50634920633178L160.1015625,141.64147990599173L167.0625,141.60280925771647L174.0234375,141.49207933688595L180.984375,141.5676394357154L187.9453125,141.90569954251032L194.90625,142.00722282688898L201.8671875,141.87589414899438L208.828125,141.69943250422978L215.7890625,141.8663143982154L222.75,142.18963242491546L229.7109375,142.0730755680984L236.671875,141.5105671026586L243.6328125,141.8745445846525L250.59375,142.2950767661396L257.5546875,142.2282974242744" style="fill: none;" fill="none"></path></g><g><path stroke="rgb(187, 187, 187)" stroke-width="2px" d="M41.765625,-49.69156904855222L48.7265625,27.740730497452123L55.6875,84.72062301384256L62.6484375,104.74480797079795L69.609375,116.24068201987957L76.5703125,120.89182754545664L83.53125,126.89283070092472L90.4921875,134.59255174900983L97.453125,135.40699191642156L104.4140625,137.7379518835382L111.375,140.0651166508508L118.3359375,141.66253154438948L125.296875,141.921993105745L132.2578125,142.93321195746805L139.21875,143.27740940830904L146.1796875,143.59820009681064L153.140625,144.17093169039615L160.1015625,143.96922519569551L167.0625,143.8734356208195L174.0234375,143.9420670805677L180.984375,143.96364789370128L187.9453125,144.1114495093827" style="fill: none;" fill="none"></path></g><g><path stroke="rgb(0, 153, 136)" stroke-width="2px" d="M34.8046875,75.5683435371944L41.765625,118.50250804741337L48.7265625,132.08977772456578L55.6875,136.92939358774885L62.6484375,139.0159715607614L69.609375,140.2947537543221L76.5703125,140.63049104986285L83.53125,141.03559424426373L90.4921875,141.22735384755427L97.453125,141.62432648767768L104.4140625,141.8937012686327L111.375,142.68006749433812L118.3359375,142.23818725051413L125.296875,142.55678583332866L132.2578125,142.78564754802557L139.21875,142.76107491094623L146.1796875,143.1573698333326L153.140625,142.67690379484534L160.1015625,142.82711546496185L167.0625,143.03506007763335L174.0234375,143.05021828983743L180.984375,143.2051559102577L187.9453125,143.3406548062125" style="fill: none;" fill="none"></path></g><g><path stroke="rgb(51, 187, 238)" stroke-width="2px" d="M34.8046875,-9.893473148345947L41.765625,65.8682069805733L48.7265625,111.59193158573197L55.6875,125.26598391558784L62.6484375,131.5974067583157L69.609375,135.17509132032077L76.5703125,138.73026790683585L83.53125,139.98953063764722L90.4921875,139.8173872937828L97.453125,139.92782498822285L104.4140625,140.57726317769763L111.375,140.99923477033735L118.3359375,141.05886586151075L125.296875,141.47197416187186L132.2578125,141.0888958788596L139.21875,140.99735647258078L146.1796875,140.78336647032546L153.140625,141.70695083416453L160.1015625,141.3123169508458L167.0625,141.672408121805L174.0234375,141.55994728284787L180.984375,141.39117966656806L187.9453125,141.712176036898" style="fill: none;" fill="none"></path></g><g><path stroke="rgb(204, 51, 17)" stroke-width="2px" d="M34.8046875,59.94440582820347L41.765625,104.68702479878228L48.7265625,119.70339731597501L55.6875,125.94008543162842L62.6484375,129.29677578229268L69.609375,130.94041385491616L76.5703125,132.07036953806937L83.53125,133.16052090779024L90.4921875,134.11505038963557L97.453125,133.80272972423006L104.4140625,133.75749919053396L111.375,134.5840013915085L118.3359375,134.5386643626059L125.296875,135.42786588145492L132.2578125,135.51054887553173L139.21875,135.69942813482353L146.1796875,135.74680004277968L153.140625,135.09933409407216L160.1015625,135.3331525872196L167.0625,135.72475238021048L174.0234375,135.90296477299276L180.984375,135.78122081988616L187.9453125,135.7206712318641" style="fill: none;" fill="none"></path></g><g><path stroke="rgb(255, 112, 67)" stroke-width="2px" d="M34.8046875,2.1894973346164965L41.765625,4.7315802777499645L48.7265625,7.341520095247259L55.6875,9.241996561495853L62.6484375,6.851029145199093L69.609375,6.428598547501775L76.5703125,30.881970591783187L83.53125,55.982478147899805L90.4921875,67.41771550655098L97.453125,75.74644695104091L104.4140625,79.55605798463228L111.375,83.79933615260838L118.3359375,86.94293099418516L125.296875,88.00188990146658L132.2578125,91.3959709945045L139.21875,94.3365085604813L146.1796875,99.68568485767238L153.140625,101.51763910265964L160.1015625,106.63055155847938L167.0625,111.54180499417114L174.0234375,113.71820470927806L180.984375,114.84445550406457L187.9453125,116.63880878446025L194.90625,117.00889679261422L201.8671875,119.43620996799793L208.828125,119.1734554853002L215.7890625,119.90802585358094L222.75,119.88044859841025L229.7109375,120.10360547429363L236.671875,120.12688140727404" style="fill: none;" fill="none"></path></g><g><path stroke="rgb(187, 187, 187)" stroke-width="2px" d="M34.8046875,13.80912290300641L41.765625,36.405098963153016L48.7265625,47.69244209052296L55.6875,56.39450854339923L62.6484375,60.709348075946885L69.609375,64.3388818409616L76.5703125,66.83819517641138L83.53125,66.82673752449233L90.4921875,69.24685219720264L97.453125,69.21141037377052L104.4140625,71.53795559357141L111.375,71.52204767980977L118.3359375,72.2902838945981L125.296875,75.11143523762279L132.2578125,74.6893134941098L139.21875,76.44610887863088L146.1796875,77.27147158026146L153.140625,79.51715227685038L160.1015625,81.32128756819412L167.0625,82.7777608894925L174.0234375,84.53571870338857L180.984375,87.2486854436085L187.9453125,88.23235493184885L194.90625,89.23593722270425L201.8671875,91.94907723491491L208.828125,93.47867373541503L215.7890625,94.3007316379129L222.75,94.68456394200655L229.7109375,94.74025425251854L236.671875,93.89065181812461" style="fill: none;" fill="none"></path></g><g><path stroke="rgb(238, 51, 119)" stroke-width="2px" d="M34.8046875,-91.67535168784005L41.765625,54.69988191666899L48.7265625,120.80339479909902L55.6875,137.41450814777312L62.6484375,141.99910768122882L69.609375,143.93651767959267L76.5703125,146.7772071471608L83.53125,148.9649316287006L90.4921875,149.99478571902648L97.453125,150.35315536910454L104.4140625,150.4034793274166L111.375,150.31911924450722L118.3359375,150.35032490922993L125.296875,150.50672071789936L132.2578125,150.5449088080102L139.21875,150.60022581424482L146.1796875,150.61120665286194L153.140625,150.63338744169133L160.1015625,150.5404053088104L167.0625,150.58632526077173L174.0234375,150.6343264575486" style="fill: none;" fill="none"></path></g><g><path stroke="rgb(51, 187, 238)" stroke-width="2px" d="M34.8046875,143.46216164742196L41.765625,146.74228914139405L48.7265625,148.40832634558217L55.6875,149.18597909693563L62.6484375,149.53148348373432L69.609375,149.6844117544374L76.5703125,149.83515615354898L83.53125,149.9034659049511L90.4921875,149.9595862913143L97.453125,149.95395465142698L104.4140625,149.98230438426538L111.375,149.98158425504218L118.3359375,150.0462381611663L125.296875,150.18391701291276L132.2578125,150.20791884075203L139.21875,150.23343597384033L146.1796875,150.23790499341112L153.140625,150.27541397992263L160.1015625,150.30613857048962L167.0625,150.32628031652737L174.0234375,150.27809186806667" style="fill: none;" fill="none"></path></g></g></g></g><g opacity="0.2"><g><g><g><path stroke="rgb(0, 153, 136)" stroke-width="2px" d="M41.765625,-7.961794240134115L48.7265625,13.985495158604207L55.6875,122.55444354670388L62.6484375,128.36541231189454L69.609375,135.42825122390474L76.5703125,136.03269062723433L83.53125,137.05148817811693L90.4921875,137.34015336206983L97.453125,140.0782834972654L104.4140625,141.1516216482435L111.375,139.42805172290122L118.3359375,142.35414331299918L125.296875,142.7907039821148L132.2578125,143.22732418349813L139.21875,143.44730721626962L146.1796875,143.32410405789102L153.140625,143.90156856179237L160.1015625,144.1956127498831L167.0625,143.8038919355188L174.0234375,143.6740422632013L180.984375,143.830274526562L187.9453125,143.83704387290138L194.90625,143.87807366251945" style="fill: none;" fill="none"></path></g><g><path stroke="rgb(238, 51, 119)" stroke-width="2px" d="M34.8046875,49.59998253413609L41.765625,118.36274492740631L48.7265625,127.93302417652947L55.6875,130.24159358228957L62.6484375,132.76743165084292L69.609375,134.596445279462L76.5703125,135.38137295416425L83.53125,136.02366885117124L90.4921875,136.0442956515721L97.453125,137.63083209310258L104.4140625,137.32711353472303L111.375,137.55183503457476L118.3359375,137.6072980080332L125.296875,138.76376279762815L132.2578125,138.31453531980515L139.21875,138.81607282161713L146.1796875,139.37775373884608L153.140625,139.01153308153152L160.1015625,140.28333297371864L167.0625,140.05468460491727L174.0234375,139.12076273560524L180.984375,139.81388713206564L187.9453125,139.56595709068435L194.90625,140.4515485550676" style="fill: none;" fill="none"></path></g><g><path stroke="rgb(255, 112, 67)" stroke-width="2px" d="M41.765625,-136.4143421990531L48.7265625,63.91849064826965L55.6875,129.23477482795715L62.6484375,133.35216361284256L69.609375,141.50172790033477L76.5703125,141.00746614592416L83.53125,142.47103228313583L90.4921875,142.96570096697127L97.453125,143.58625703624318L104.4140625,144.37644389697482L111.375,144.28867374147688L118.3359375,143.37786621706826L125.296875,143.63663942047526L132.2578125,143.23869861449515L139.21875,143.67133467538017" style="fill: none;" fill="none"></path></g><g><path stroke="rgb(187, 187, 187)" stroke-width="2px" d="M34.8046875,82.82461258343288L41.765625,123.87312396935054L48.7265625,134.255628321852L55.6875,136.81231314795357L62.6484375,137.2351972205298L69.609375,138.7452022944178L76.5703125,139.09603875875473L83.53125,138.6537818312645L90.4921875,139.2330209996019L97.453125,140.4789816268853L104.4140625,140.706057288817L111.375,141.03637019225528L118.3359375,141.5467802626746L125.296875,140.9773887864181L132.2578125,141.824201383761L139.21875,141.64349532978875" style="fill: none;" fill="none"></path></g><g><path stroke="rgb(238, 51, 119)" stroke-width="2px" d="M34.8046875,139.37254428863525L41.765625,135.07295662164688L48.7265625,140.379390171596L55.6875,143.8491259089538L62.6484375,147.3740096262523L69.609375,147.6955207969461L76.5703125,148.0338603832892L83.53125,148.21482114493847L90.4921875,148.35730446875095L97.453125,147.26596534252167L104.4140625,148.36971996085984L111.375,148.43860670711314L118.3359375,147.37558007240295L125.296875,148.30561388177532L132.2578125,148.22844875923226L139.21875,148.70445991733243L146.1796875,148.6993229985237L153.140625,148.68564319929908L160.1015625,148.70042849012782L167.0625,148.74535632452796L174.0234375,148.71108344729458L180.984375,148.72562326171567L187.9453125,148.80149826726745L194.90625,148.78746673784087L201.8671875,148.7856996091349L208.828125,148.78691851347685L215.7890625,148.78701572439502L222.75,148.74275743961334" style="fill: none;" fill="none"></path></g><g><path stroke="rgb(51, 187, 238)" stroke-width="2px" d="M34.8046875,131.3068413734436L41.765625,142.98560358371054L48.7265625,145.30760241406304L55.6875,145.86746458283494L62.6484375,146.0977463211332L69.609375,146.4977737707751L76.5703125,146.3187365042312L83.53125,146.6294557558639L90.4921875,147.01968939389502L97.453125,146.90121641329358L104.4140625,147.07354311219285L111.375,147.1885722641434L118.3359375,146.99252534764153L125.296875,147.08097258848804L132.2578125,147.00806703737805L139.21875,147.0774824150971L146.1796875,147.3916899561882L153.140625,147.15162947773933L160.1015625,147.42539087150777L167.0625,147.4155363972698L174.0234375,147.2693454942533L180.984375,147.46827143643583L187.9453125,147.55786599218845L194.90625,147.56487083009313L201.8671875,147.41923191930567L208.828125,147.47907842695713L215.7890625,147.6150821532522L222.75,147.32283259928226" style="fill: none;" fill="none"></path></g><g><path style="fill: none;" fill="none" stroke="none" stroke-width="1px"></path></g><g><path stroke="rgb(255, 112, 67)" stroke-width="2px" d="M34.8046875,49.19682700293404L41.765625,111.20643281936646" style="fill: none;" fill="none"></path></g><g><path stroke="rgb(0, 153, 136)" stroke-width="2px" d="M41.765625,-9.358532769339437L48.7265625,108.08582368918827L55.6875,121.26792562007904L62.6484375,66.43419466699872L69.609375,137.96205455916268L76.5703125,141.7109536784036L83.53125,142.5241742517267L90.4921875,143.22765726276805L97.453125,143.7212310050215L104.4140625,144.31058990529607L111.375,143.91050141624044L118.3359375,144.33497326714652L125.296875,144.69165369016784L132.2578125,144.5022973716259L139.21875,143.86501725656646L146.1796875,144.69488350408417L153.140625,144.59332823753357L160.1015625,144.65454775520732L167.0625,144.49949332645963L174.0234375,144.77311643958092L180.984375,144.63239421589034L187.9453125,144.59019111309732L194.90625,144.75018973435675L201.8671875,144.68467334338595L208.828125,144.74420636466573" style="fill: none;" fill="none"></path></g><g><path stroke="rgb(238, 51, 119)" stroke-width="2px" d="M34.8046875,100.94756719044277L41.765625,133.88630821875165L48.7265625,137.18874095167433L55.6875,137.0747750912394L62.6484375,138.4648399778775L69.609375,139.25308262024606L76.5703125,140.12518135990416L83.53125,139.82971819383758L90.4921875,141.4283524964537L97.453125,141.3386411368847L104.4140625,141.23885827405113L111.375,141.21110870156969L118.3359375,141.59264196242606L125.296875,141.32035267353058L132.2578125,141.99087967617172L139.21875,141.83740624359677L146.1796875,142.41050529905726L153.140625,142.3954956318651L160.1015625,142.16634462986673L167.0625,142.2281865988459L174.0234375,142.57532829471995L180.984375,142.5972994693688L187.9453125,142.53943410515785L194.90625,142.33846221225602L201.8671875,142.81650255407607L208.828125,142.2241188117436" style="fill: none;" fill="none"></path></g><g><path stroke="rgb(255, 112, 67)" stroke-width="2px" d="M34.8046875,-169.3356681551252L41.765625,23.033230304718018L48.7265625,-2.135312420981282L55.6875,14.301392963954386L62.6484375,84.75974587031773L69.609375,114.86310364518846L76.5703125,127.94756361416408L83.53125,138.72284981182645L90.4921875,139.63123309186528L97.453125,140.73915722966194L104.4140625,141.3777681546552L111.375,141.95179033705165L118.3359375,142.35503780416082L125.296875,142.70103632978032L132.2578125,142.52952160579818L139.21875,142.0001448563167L146.1796875,142.2092952770846L153.140625,142.49720764160156L160.1015625,142.55589063252722" style="fill: none;" fill="none"></path></g><g><path stroke="rgb(187, 187, 187)" stroke-width="2px" d="M34.8046875,36.51966721670968L41.765625,113.50508671147483L48.7265625,127.32971513271332L55.6875,130.7255487186568L62.6484375,132.60165764604295L69.609375,133.70360444273268L76.5703125,134.63718946490968L83.53125,135.38979036467416L90.4921875,135.6841555748667L97.453125,135.08381410155977L104.4140625,135.91930049657822L111.375,136.09424247060502L118.3359375,136.71001109055112L125.296875,136.72733573402678L132.2578125,137.28418700184142L139.21875,136.5259734903063L146.1796875,137.17425124985832L153.140625,137.65336392607009L160.1015625,138.17554782118117" style="fill: none;" fill="none"></path></g><g><path stroke="rgb(255, 112, 67)" stroke-width="2px" d="M62.6484375,-9.351937498365112L69.609375,123.36708462238312L76.5703125,136.77963671513965L83.53125,139.96621739438604L90.4921875,140.00405730945724L97.453125,140.95746883749962L104.4140625,141.22222616417068L111.375,140.4731557539531L118.3359375,141.02944259558404L125.296875,141.8203837828977L132.2578125,142.48563502090317L139.21875,142.32462811895778L146.1796875,142.08001229166985L153.140625,142.2898906639644L160.1015625,142.7081455375467L167.0625,142.427326555763L174.0234375,142.8853097983769L180.984375,142.3818589746952L187.9453125,142.6318779204573L194.90625,142.60335970350673L201.8671875,142.5151102755751L208.828125,142.50804778933525" style="fill: none;" fill="none"></path></g><g><path stroke="rgb(187, 187, 187)" stroke-width="2px" d="M34.8046875,59.474290813718525L41.765625,119.10299175126212L48.7265625,132.6308133857591L55.6875,135.369223850114L62.6484375,136.27147681372506L69.609375,137.56809864725386L76.5703125,137.6989641359874L83.53125,138.11118213619505L90.4921875,138.63413166148322L97.453125,138.28693947621753L104.4140625,138.56812168019158L111.375,138.3933183635984L118.3359375,139.20366857733046L125.296875,139.23917618393898L132.2578125,139.9702919636454L139.21875,139.70871923651015L146.1796875,139.65667748451233L153.140625,139.53184359414237L160.1015625,139.56686363901412L167.0625,139.64343871389116L174.0234375,139.701296542372L180.984375,140.004543364048L187.9453125,140.24314266443253L194.90625,140.0402838247163L201.8671875,140.08139500021935L208.828125,140.2858823112079" style="fill: none;" fill="none"></path></g><g><path stroke="rgb(238, 51, 119)" stroke-width="2px" d="M34.8046875,-10.734315940311971L41.765625,10.93222229821342L48.7265625,71.63195545332772L55.6875,90.83407483782088L62.6484375,127.71183542694365L69.609375,135.0782994542803L76.5703125,139.73037692478727L83.53125,140.5526064634323L90.4921875,139.17345256039073L97.453125,142.33534618786405L104.4140625,143.13903481619698L111.375,143.17474739466394L118.3359375,143.58749289597785L125.296875,142.65397870966365L132.2578125,143.7451524266175L139.21875,143.43223801680972L146.1796875,142.94083531839507L153.140625,143.54065381203378L160.1015625,143.03513895188058L167.0625,143.3461121576173" style="fill: none;" fill="none"></path></g><g><path stroke="rgb(51, 187, 238)" stroke-width="2px" d="M34.8046875,82.75516932351249L41.765625,121.41352496828353L48.7265625,129.25545588561465L55.6875,132.36613141638892L62.6484375,134.3254091824804L69.609375,134.69275793858935L76.5703125,135.0906459944589L83.53125,136.17010767970766L90.4921875,135.68611185039794L97.453125,136.95090577432086L104.4140625,135.6973039167268L111.375,137.16654521226883L118.3359375,138.05104701008116L125.296875,137.2991213117327L132.2578125,136.87932990278517L139.21875,138.15304010254997L146.1796875,138.0661033987999L153.140625,138.41959244012833L160.1015625,137.94308411223548L167.0625,138.03117528983523" style="fill: none;" fill="none"></path></g><g><path stroke="rgb(187, 187, 187)" stroke-width="2px" d="M34.8046875,7.739013944353373L41.765625,-46.815765380859375L48.7265625,49.07023879459926L55.6875,40.28050293241229L62.6484375,88.2421212877546L69.609375,116.1944501229695L76.5703125,124.71526893547603L83.53125,136.66595118386405L90.4921875,140.79935339518954L97.453125,142.3927601618426L104.4140625,139.73071226477623L111.375,143.0250915629523L118.3359375,143.66991419025828L125.296875,143.19061764223235L132.2578125,143.31839649592126L139.21875,143.25320489491736L146.1796875,143.03745392816407L153.140625,142.79320584450448" style="fill: none;" fill="none"></path></g><g><path stroke="rgb(0, 153, 136)" stroke-width="2px" d="M34.8046875,62.323062045233584L41.765625,120.85812056064606L48.7265625,128.31871188538415L55.6875,131.4407769186156L62.6484375,134.06492160047804L69.609375,134.5072674495833L76.5703125,135.17168825013297L83.53125,135.19190962825502L90.4921875,135.88288332734788L97.453125,137.25125586135047L104.4140625,136.22089096478055L111.375,138.03170731237958L118.3359375,137.38738731827056L125.296875,138.4873507108007L132.2578125,138.0423914705004L139.21875,139.16089426619666L146.1796875,139.38761198094915L153.140625,139.52897850956236" style="fill: none;" fill="none"></path></g><g><path stroke="rgb(51, 187, 238)" stroke-width="2px" d="M34.8046875,-176.05855219704765L41.765625,65.79170434815543L48.7265625,30.0393854549953L55.6875,135.90784920113427L62.6484375,131.22512542349952L69.609375,140.62837672233582L76.5703125,138.4801390171051L83.53125,141.67112282344272L90.4921875,137.30428630113602L97.453125,141.73220142296384L104.4140625,139.544786964144L111.375,143.98806819319725L118.3359375,143.23580866200584L125.296875,142.76459719879287L132.2578125,142.93047821096013L139.21875,143.34669090168816L146.1796875,143.25103159035956" style="fill: none;" fill="none"></path></g><g><path stroke="rgb(204, 51, 17)" stroke-width="2px" d="M34.8046875,90.73245099612645L41.765625,125.10422112260545L48.7265625,131.31781490359987L55.6875,133.64256050757L62.6484375,135.1791139585631L69.609375,136.09065546308244L76.5703125,136.9963356767382L83.53125,137.4157804421016L90.4921875,138.42097298588072L97.453125,137.89816061088015L104.4140625,139.09038922190666L111.375,139.01567622593473L118.3359375,139.39135874594962L125.296875,139.6847503398146L132.2578125,139.54782386337007L139.21875,140.21048356379782L146.1796875,138.74124151468277" style="fill: none;" fill="none"></path></g><g><path stroke="rgb(255, 112, 67)" stroke-width="2px" d="M41.765625,-5.620629787445068L48.7265625,134.76543402671814L55.6875,135.2019381778581L62.6484375,142.59057609098298L69.609375,143.89393637435776L76.5703125,143.29170117207934L83.53125,144.43230098911692L90.4921875,144.66291618347168L97.453125,144.60471321855272L104.4140625,144.85414287022184L111.375,144.9972576882158L118.3359375,145.17515065414565L125.296875,144.7878887312753L132.2578125,145.1106975546905L139.21875,145.21021817411696L146.1796875,145.31919387408664L153.140625,145.44277683326175L160.1015625,145.12454295158386L167.0625,145.49117845083987L174.0234375,145.4356898558991L180.984375,145.343902779477L187.9453125,145.44270034560134L194.90625,145.37812705125128L201.8671875,145.32785167438644" style="fill: none;" fill="none"></path></g><g><path stroke="rgb(187, 187, 187)" stroke-width="2px" d="M34.8046875,99.87692683083671L41.765625,133.44939864533288L48.7265625,136.99996940578734L55.6875,137.7359675850187L62.6484375,138.53675495726722L69.609375,139.72530763915609L76.5703125,139.61532742636544L83.53125,139.80238308651107L90.4921875,140.30396429555756L97.453125,140.37132241896222L104.4140625,140.87958631345202L111.375,141.40701130884034L118.3359375,141.79478942922185L125.296875,141.74167006782125L132.2578125,141.81456996713365L139.21875,141.6075823009014L146.1796875,142.03004135830062L153.140625,142.22533507858003L160.1015625,142.23387908935547L167.0625,142.18224878822053L174.0234375,142.07211032509804L180.984375,142.75621595978737L187.9453125,142.50021138361524L194.90625,142.13754382303784L201.8671875,142.23317600573813" style="fill: none;" fill="none"></path></g><g><path stroke="rgb(238, 51, 119)" stroke-width="2px" d="M34.8046875,107.27730315072196L41.765625,112.00842440128326L48.7265625,143.65994743364197L55.6875,147.01137786039283L62.6484375,147.04278527625968L69.609375,147.05507040023804L76.5703125,147.59233291447163L83.53125,147.70757231329168L90.4921875,147.8893529623747L97.453125,147.62634241793836L104.4140625,147.6467054677861L111.375,147.95974798500538L118.3359375,147.91164892699038L125.296875,147.91316210159232L132.2578125,147.90932264711176L139.21875,148.1042049165283L146.1796875,147.92551617750098L153.140625,147.89083260297775L160.1015625,147.90360227440084L167.0625,148.0766418533666L174.0234375,147.93092268705368L180.984375,148.0718167253903L187.9453125,147.8285859652928L194.90625,148.04502532098974L201.8671875,147.85527978198868" style="fill: none;" fill="none"></path></g><g><path stroke="rgb(51, 187, 238)" stroke-width="2px" d="M34.8046875,120.10524988174438L41.765625,141.83321110265595L48.7265625,144.10655624525887L55.6875,144.89808446594645L62.6484375,145.23442369273732L69.609375,145.22386990274703L76.5703125,145.75933589892728L83.53125,146.02339730092456L90.4921875,146.21101361938884L97.453125,146.41104882104057L104.4140625,146.26547773182392L111.375,146.39100792365414L118.3359375,146.69828259306294L125.296875,146.8376559210675L132.2578125,146.45946626365185L139.21875,146.54579784827573L146.1796875,146.54356086679866L153.140625,146.7529384898288L160.1015625,146.82178190563405L167.0625,146.89377789412225L174.0234375,146.52347927646977L180.984375,146.57007834741046L187.9453125,146.7858010551759L194.90625,146.58256844324725L201.8671875,146.94442026104247" style="fill: none;" fill="none"></path></g><g><path stroke="rgb(187, 187, 187)" stroke-width="2px" d="M34.8046875,-84.64626380375452L41.765625,78.87616130283901L48.7265625,121.22570141724178L55.6875,137.56263072150094L62.6484375,139.34627171925138L69.609375,141.30414407168115L76.5703125,141.09910665239607L83.53125,142.5698822225843L90.4921875,142.48760486074855L97.453125,143.3009874522686L104.4140625,143.68562015891075L111.375,143.90497546536582L118.3359375,144.24659573180335L125.296875,144.18278543012482L132.2578125,144.26453905871938L139.21875,144.01089618035724L146.1796875,143.97834107279778L153.140625,144.28852679474014L160.1015625,144.53762487428529L167.0625,144.61378020899636L174.0234375,144.36626463277L180.984375,144.42536284242357L187.9453125,144.70552922998155L194.90625,144.69505230443818L201.8671875,144.6271847656795L208.828125,144.46135047503878L215.7890625,144.50162970594L222.75,144.7872979300363L229.7109375,144.72477623820305L236.671875,144.635061864342L243.6328125,144.78092571667264L250.59375,144.58378272822927L257.5546875,144.7401966026851" style="fill: none;" fill="none"></path></g><g><path stroke="rgb(0, 153, 136)" stroke-width="2px" d="M34.8046875,88.1642621244703L41.765625,131.63170217616218L48.7265625,134.94398410831178L55.6875,136.60709713186537L62.6484375,137.83477457080568L69.609375,138.43421627793992L76.5703125,138.4671157683645L83.53125,139.5540001477514L90.4921875,140.11860492825508L97.453125,140.0277737591948L104.4140625,140.33681555730956L111.375,140.67033792819296L118.3359375,140.98317321283477L125.296875,140.88889444725854L132.2578125,141.2205946786063L139.21875,141.4571608390127L146.1796875,141.6032922097615L153.140625,141.49412962368558L160.1015625,141.69222362126624L167.0625,141.58828781758035L174.0234375,141.4504985000406L180.984375,141.59601344806808L187.9453125,142.03264646019255L194.90625,142.0453464261123L201.8671875,141.82657815303122L208.828125,141.63316836527417L215.7890625,141.92898118921687L222.75,142.3110434583255L229.7109375,142.02930662461688L236.671875,141.2993362758841L243.6328125,142.0112238866942L250.59375,142.45299325244767L257.5546875,142.2032207250595" style="fill: none;" fill="none"></path></g><g><path stroke="rgb(187, 187, 187)" stroke-width="2px" d="M41.765625,-30.378276279994424L48.7265625,54.65070012637547L55.6875,105.68212473392487L62.6484375,112.22243913582393L69.609375,120.55101845945632L76.5703125,122.63768322127206L83.53125,129.14604763473784L90.4921875,137.48382959195544L97.453125,135.71282450641905L104.4140625,138.61326221057345L111.375,140.93900328448842L118.3359375,142.26238600271088L125.296875,142.01942502175058L132.2578125,143.3129406273365L139.21875,143.4066609953131L146.1796875,143.718662074634L153.140625,144.38600146344731L160.1015625,143.89348121626037L167.0625,143.83746512021338L174.0234375,143.9678392793451L180.984375,143.97175183040756L187.9453125,144.16695135406087" style="fill: none;" fill="none"></path></g><g><path stroke="rgb(0, 153, 136)" stroke-width="2px" d="M34.8046875,75.5683435371944L41.765625,130.22353495870317L48.7265625,136.81174796819687L55.6875,138.70976929153716L62.6484375,139.79516234993935L69.609375,140.77422851749827L76.5703125,140.75651352320398L83.53125,141.18769970961978L90.4921875,141.2993603902204L97.453125,141.77339473792483L104.4140625,141.9948555273669L111.375,142.97536026579994L118.3359375,142.07225425754274L125.296875,142.67642463530814L132.2578125,142.87158874103L139.21875,142.7518474970545L146.1796875,143.3061848453113L153.140625,142.49648119722093L160.1015625,142.88352232319968L167.0625,143.11314656904767L174.0234375,143.05591043829918L180.984375,143.26333743759562L187.9453125,143.39153678502356" style="fill: none;" fill="none"></path></g><g><path stroke="rgb(51, 187, 238)" stroke-width="2px" d="M34.8046875,-9.893473148345947L41.765625,86.55114565576825L48.7265625,127.48225187403816L55.6875,130.29633161851336L62.6484375,133.96174991982323L69.609375,136.51653122050422L76.5703125,140.06474028314864L83.53125,140.46235027057784L90.4921875,139.7527467395578L97.453125,139.96929574012756L104.4140625,140.82113693015916L111.375,141.15769167883056L118.3359375,141.08125827567918L125.296875,141.62710285612513L132.2578125,140.9450439257281L139.21875,140.96298197763306L146.1796875,140.70300983956884L153.140625,142.05377137235234L160.1015625,141.16412568518092L167.0625,141.80762805257524L174.0234375,141.51771645886558L180.984375,141.32780475701605L187.9453125,141.83271525161607" style="fill: none;" fill="none"></path></g><g><path stroke="rgb(204, 51, 17)" stroke-width="2px" d="M34.8046875,59.94440582820347L41.765625,116.90175977775029L48.7265625,124.92202224050249L55.6875,128.23440967287337L62.6484375,130.55026462248395L69.609375,131.55669001170565L76.5703125,132.49451011419296L83.53125,133.56984372649873L90.4921875,134.47348025015424L97.453125,133.68544936180115L104.4140625,133.74051444871085L111.375,134.89436584711075L118.3359375,134.52163959400994L125.296875,135.76177510193418L132.2578125,135.54159764732634L139.21875,135.77035528421402L146.1796875,135.76458894354957L153.140625,134.85620038849967L160.1015625,135.42095513003213L167.0625,135.87180429697037L174.0234375,135.96988634552275L180.984375,135.73550403969628L187.9453125,135.69793390376228" style="fill: none;" fill="none"></path></g><g><path stroke="rgb(255, 112, 67)" stroke-width="2px" d="M34.8046875,2.1894973346165165L41.765625,5.425568921225403L48.7265625,8.248549870082316L55.6875,9.941135134015767L62.6484375,5.958170209612162L69.609375,6.270209721156535L76.5703125,40.06079721450806L83.53125,65.40705054146903L90.4921875,71.71169553484235L97.453125,78.87399101257324L104.4140625,80.98662390027728L111.375,85.39275322641645L118.3359375,88.12340038163322L125.296875,88.39954570361546L132.2578125,92.67050211770194L139.21875,95.44072692734855L146.1796875,101.69438517093658L153.140625,102.20556690011705L160.1015625,108.55053106376103L167.0625,113.38605834756578L174.0234375,114.53547722952706L180.984375,115.26738049302782L187.9453125,117.31261682510376L194.90625,117.14787069388798L201.8671875,120.34770446164268L208.828125,119.07478702068329L215.7890625,120.1838686466217L222.75,119.87009290286473L229.7109375,120.18740441117967L236.671875,120.13562188829695" style="fill: none;" fill="none"></path></g><g><path stroke="rgb(187, 187, 187)" stroke-width="2px" d="M34.8046875,13.80912290300641L41.765625,42.57380042757306L48.7265625,51.61512116023472L55.6875,59.59578486851284L62.6484375,62.320638554436826L69.609375,65.69976241247994L76.5703125,67.77633833885193L83.53125,66.8224354812077L90.4921875,70.15561550004142L97.453125,69.19810152053833L104.4140625,72.41160811696734L111.375,71.51607401030404L118.3359375,72.57876869610378L125.296875,76.17082214355469L132.2578125,74.53080010414124L139.21875,77.10581333296639L146.1796875,77.5814083303724L153.140625,80.36044090134757L160.1015625,81.9987689086369L167.0625,83.32468966075352L174.0234375,85.19585967063904L180.984375,88.26744736943927L187.9453125,88.60173838479179L194.90625,89.61279824801854L201.8671875,92.96790422712053L208.828125,94.05306141717094L215.7890625,94.60942738396781L222.75,94.82869904381889L229.7109375,94.76116684504917L236.671875,93.57161266463143" style="fill: none;" fill="none"></path></g><g><path stroke="rgb(238, 51, 119)" stroke-width="2px" d="M34.8046875,-91.67535168784005L41.765625,94.66032069069999L48.7265625,143.77628252761704L55.6875,143.52532839775085L62.6484375,143.71113463384765L69.609375,144.662942558527L76.5703125,147.84348937869072L83.53125,149.78636393270324L90.4921875,150.3815002888441L97.453125,150.4877277080502L104.4140625,150.42237672635486L111.375,150.28744071881687L118.3359375,150.36204312794973L125.296875,150.56544981524348L132.2578125,150.55924903973937L139.21875,150.6209982250418L146.1796875,150.6153301314584L153.140625,150.64171667875988L160.1015625,150.50548904708455L167.0625,150.60356892911452L174.0234375,150.65235166624188" style="fill: none;" fill="none"></path></g><g><path stroke="rgb(51, 187, 238)" stroke-width="2px" d="M34.8046875,143.46216164742196L41.765625,147.63776394724846L48.7265625,148.98732258911645L55.6875,149.47205842712094L62.6484375,149.6605051830411L69.609375,149.7417516570006L76.5703125,149.89173962601592L83.53125,149.92911439814736L90.4921875,149.98065973392556L97.453125,149.95183989937817L104.4140625,149.99295013291496L111.375,149.98131383529733L118.3359375,150.07051672147853L125.296875,150.23561759718825L132.2578125,150.2169319066618L139.21875,150.24301806092262L146.1796875,150.23958318095123L153.140625,150.2894991976874L160.1015625,150.31767614026154L167.0625,150.33384386077523L174.0234375,150.25999634340405" style="fill: none;" fill="none"></path></g></g></g></g></g></g><g transform="translate(51, 177)" clip-path="url(#clip_1)"><clipPath id="clip_1"><rect width="278" height="23"></rect></clipPath><g><g><line x1="0" y1="0" x2="0" y2="5" style="visibility: inherit;" fill="rgb(0, 0, 0)" stroke="rgb(204, 204, 204)" stroke-width="1px"></line><line x1="34.8046875" y1="0" x2="34.8046875" y2="5" style="visibility: inherit;" fill="rgb(0, 0, 0)" stroke="rgb(204, 204, 204)" stroke-width="1px"></line><line x1="69.609375" y1="0" x2="69.609375" y2="5" style="visibility: inherit;" fill="rgb(0, 0, 0)" stroke="rgb(204, 204, 204)" stroke-width="1px"></line><line x1="104.4140625" y1="0" x2="104.4140625" y2="5" style="visibility: inherit;" fill="rgb(0, 0, 0)" stroke="rgb(204, 204, 204)" stroke-width="1px"></line><line x1="139.21875" y1="0" x2="139.21875" y2="5" style="visibility: inherit;" fill="rgb(0, 0, 0)" stroke="rgb(204, 204, 204)" stroke-width="1px"></line><line x1="174.0234375" y1="0" x2="174.0234375" y2="5" style="visibility: inherit;" fill="rgb(0, 0, 0)" stroke="rgb(204, 204, 204)" stroke-width="1px"></line><line x1="208.828125" y1="0" x2="208.828125" y2="5" style="visibility: inherit;" fill="rgb(0, 0, 0)" stroke="rgb(204, 204, 204)" stroke-width="1px"></line><line x1="243.6328125" y1="0" x2="243.6328125" y2="5" style="visibility: inherit;" fill="rgb(0, 0, 0)" stroke="rgb(204, 204, 204)" stroke-width="1px"></line><line x1="278.4375" y1="0" x2="278.4375" y2="5" style="visibility: inherit;" fill="rgb(0, 0, 0)" stroke="rgb(204, 204, 204)" stroke-width="1px"></line></g><g transform="translate(0, 8)"><text x="0" y="0" dx="0em" dy="0.95em" style="text-anchor: middle; visibility: hidden; font-family: Roboto, sans-serif; font-size: 12px; font-weight: 200;" fill="rgb(255, 255, 255)" stroke="none" stroke-width="1px">-5</text><text x="34.8046875" y="0" dx="0em" dy="0.95em" style="text-anchor: middle; visibility: inherit; font-family: Roboto, sans-serif; font-size: 12px; font-weight: 200;" fill="rgb(255, 255, 255)" stroke="none" stroke-width="1px">0</text><text x="69.609375" y="0" dx="0em" dy="0.95em" style="text-anchor: middle; visibility: inherit; font-family: Roboto, sans-serif; font-size: 12px; font-weight: 200;" fill="rgb(255, 255, 255)" stroke="none" stroke-width="1px">5</text><text x="104.4140625" y="0" dx="0em" dy="0.95em" style="text-anchor: middle; visibility: inherit; font-family: Roboto, sans-serif; font-size: 12px; font-weight: 200;" fill="rgb(255, 255, 255)" stroke="none" stroke-width="1px">10</text><text x="139.21875" y="0" dx="0em" dy="0.95em" style="text-anchor: middle; visibility: inherit; font-family: Roboto, sans-serif; font-size: 12px; font-weight: 200;" fill="rgb(255, 255, 255)" stroke="none" stroke-width="1px">15</text><text x="174.0234375" y="0" dx="0em" dy="0.95em" style="text-anchor: middle; visibility: inherit; font-family: Roboto, sans-serif; font-size: 12px; font-weight: 200;" fill="rgb(255, 255, 255)" stroke="none" stroke-width="1px">20</text><text x="208.828125" y="0" dx="0em" dy="0.95em" style="text-anchor: middle; visibility: inherit; font-family: Roboto, sans-serif; font-size: 12px; font-weight: 200;" fill="rgb(255, 255, 255)" stroke="none" stroke-width="1px">25</text><text x="243.6328125" y="0" dx="0em" dy="0.95em" style="text-anchor: middle; visibility: inherit; font-family: Roboto, sans-serif; font-size: 12px; font-weight: 200;" fill="rgb(255, 255, 255)" stroke="none" stroke-width="1px">30</text><text x="278.4375" y="0" dx="0em" dy="0.95em" style="text-anchor: middle; visibility: hidden; font-family: Roboto, sans-serif; font-size: 12px; font-weight: 200;" fill="rgb(255, 255, 255)" stroke="none" stroke-width="1px">35</text></g><line x1="0" y1="0" x2="278.4375" y2="0" fill="rgb(0, 0, 0)" stroke="rgb(204, 204, 204)" stroke-width="1px"></line></g></g></g></g></svg>